<?xml version="1.0" encoding="utf-8"?>
<!-- Generator: Adobe Illustrator 17.0.0, SVG Export Plug-In . SVG Version: 6.00 Build 0)  -->
<!DOCTYPE svg PUBLIC "-//W3C//DTD SVG 1.1//EN" "http://www.w3.org/Graphics/SVG/1.1/DTD/svg11.dtd">
<svg version="1.1" id="Слой_1" xmlns="http://www.w3.org/2000/svg" xmlns:xlink="http://www.w3.org/1999/xlink" x="0px" y="0px"
	 width="90px" height="90px" viewBox="252.64 375.945 90 90" enable-background="new 252.64 375.945 90 90" xml:space="preserve">
<title>Ресурс 1</title>
<g id="Слой_2">
	<g id="Layer_1">
		<path fill="#42ADDF" d="M275.809,433.823h-6.066l-7.468,22.131h5.551l1.379-4.52h6.952l1.379,4.52h5.755L275.809,433.823z
			 M270.425,447.429l2.278-7.301l2.266,7.301H270.425z"/>
		<path fill="#42ADDF" d="M286.815,424.963h-28.162c-3.311,0.014-5.983,2.707-5.97,6.018v28.114c0,3.311,2.683,5.994,5.994,5.994
			h28.138c3.311,0,5.994-2.683,5.994-5.994v-28.138C292.809,427.646,290.126,424.963,286.815,424.963z M289.584,456.805
			c0,2.788-2.26,5.047-5.047,5.047h-23.534c-2.788,0-5.047-2.26-5.047-5.047v-23.534c0-2.788,2.26-5.047,5.047-5.047h23.534
			c2.788,0,5.047,2.26,5.047,5.047V456.805z"/>
		<path fill="#42ADDF" d="M275.809,433.823h-6.066l-7.468,22.131h5.551l1.379-4.52h6.952l1.379,4.52h5.755L275.809,433.823z
			 M270.425,447.429l2.278-7.301l2.266,7.301H270.425z"/>
		<path fill="#42ADDF" d="M275.809,433.823h-6.066l-7.468,22.131h5.551l1.379-4.52h6.952l1.379,4.52h5.755L275.809,433.823z
			 M270.425,447.429l2.278-7.301l2.266,7.301H270.425z"/>
		<path fill="#42ADDF" d="M300.638,401.273c-0.245-1.296-0.984-2.443-2.062-3.202c-1.073-0.676-2.333-0.995-3.596-0.91v-0.121
			c0.798-0.583,1.397-1.4,1.714-2.337c0.316-0.971,0.345-2.011,0.083-2.998c-0.201-0.841-0.614-1.617-1.199-2.254
			c-0.576-0.603-1.318-1.022-2.134-1.199c-0.842-0.227-1.722-0.292-2.59-0.192c-1.212,0.159-2.414,0.399-3.596,0.72l-7.589,1.906
			l5.383,21.46l8.644-2.169c1.253-0.281,2.463-0.729,3.596-1.332c0.895-0.514,1.681-1.197,2.314-2.014
			c0.55-0.706,0.934-1.524,1.126-2.397C300.934,403.254,300.901,402.239,300.638,401.273z M287.222,397.821l-1.138-4.544
			l0.372-0.095c0.983-0.24,1.69-0.408,2.181-0.515c0.432-0.106,0.878-0.13,1.32-0.073c0.404,0.064,0.769,0.272,1.031,0.588
			c0.249,0.292,0.429,0.635,0.528,1.007h-0.012c0.125,0.419,0.157,0.862,0.095,1.294c-0.088,0.425-0.331,0.801-0.683,1.055
			c-0.314,0.265-0.677,0.469-1.067,0.6l-1.953,0.515L287.222,397.821z M295.063,404.079c-0.141,0.481-0.435,0.902-0.839,1.199
			c-0.446,0.345-0.949,0.609-1.486,0.779c-0.537,0.16-1.507,0.413-2.914,0.756l-0.287,0.073l-1.342-5.383l0.995-0.24l2.302-0.564
			c0.458-0.115,0.931-0.156,1.403-0.119c0.519,0.029,1.017,0.218,1.426,0.54c0.41,0.393,0.686,0.904,0.792,1.462l-0.06-0.012
			C295.187,403.062,295.191,403.583,295.063,404.079z"/>
		<path fill="#42ADDF" d="M313.238,408.334l-6.833-27.274c-0.006-0.021-0.011-0.042-0.017-0.062
			c-0.824-3.206-4.091-5.138-7.297-4.314l-27.227,6.834c-0.056,0.012-0.112,0.026-0.168,0.041c-3.199,0.85-5.105,4.131-4.255,7.332
			l6.821,27.215c0.006,0.024,0.014,0.05,0.02,0.076c0.83,3.205,4.101,5.131,7.306,4.299l27.274-6.833
			c0.021-0.006,0.042-0.011,0.062-0.015C312.13,414.809,314.061,411.541,313.238,408.334z M305.853,413.019
			c-0.003,0.001-0.008,0.001-0.012,0.003l-22.779,5.731c-2.7,0.673-5.436-0.969-6.113-3.669l-5.731-22.778
			c-0.724-2.698,0.875-5.474,3.574-6.198c0.017-0.005,0.032-0.009,0.047-0.012l22.778-5.719c2.704-0.673,5.444,0.967,6.127,3.667
			l5.767,22.863C310.187,409.604,308.55,412.34,305.853,413.019z"/>
		<path fill="#42ADDF" d="M300.638,401.273c-0.245-1.296-0.984-2.443-2.062-3.202c-1.073-0.676-2.333-0.995-3.596-0.91v-0.121
			c0.798-0.583,1.397-1.4,1.714-2.337c0.316-0.971,0.345-2.011,0.083-2.998c-0.201-0.841-0.614-1.617-1.199-2.254
			c-0.576-0.603-1.318-1.022-2.134-1.199c-0.842-0.227-1.722-0.292-2.59-0.192c-1.212,0.159-2.414,0.399-3.596,0.72l-7.589,1.906
			l5.383,21.46l8.644-2.169c1.253-0.281,2.463-0.729,3.596-1.332c0.895-0.514,1.681-1.197,2.314-2.014
			c0.55-0.706,0.934-1.524,1.126-2.397C300.934,403.254,300.901,402.239,300.638,401.273z M287.222,397.821l-1.138-4.544
			l0.372-0.095c0.983-0.24,1.69-0.408,2.181-0.515c0.432-0.106,0.878-0.13,1.32-0.073c0.404,0.064,0.769,0.272,1.031,0.588
			c0.249,0.292,0.429,0.635,0.528,1.007h-0.012c0.125,0.419,0.157,0.862,0.095,1.294c-0.088,0.425-0.331,0.801-0.683,1.055
			c-0.314,0.265-0.677,0.469-1.067,0.6l-1.953,0.515L287.222,397.821z M295.063,404.079c-0.141,0.481-0.435,0.902-0.839,1.199
			c-0.446,0.345-0.949,0.609-1.486,0.779c-0.537,0.16-1.507,0.413-2.914,0.756l-0.287,0.073l-1.342-5.383l0.995-0.24l2.302-0.564
			c0.458-0.115,0.931-0.156,1.403-0.119c0.519,0.029,1.017,0.218,1.426,0.54c0.41,0.393,0.686,0.904,0.792,1.462l-0.06-0.012
			C295.187,403.062,295.191,403.583,295.063,404.079z"/>
		<path fill="#42ADDF" d="M300.638,401.273c-0.245-1.296-0.984-2.443-2.062-3.202c-1.073-0.676-2.333-0.995-3.596-0.91v-0.121
			c0.798-0.583,1.397-1.4,1.714-2.337c0.316-0.971,0.345-2.011,0.083-2.998c-0.201-0.841-0.614-1.617-1.199-2.254
			c-0.576-0.603-1.318-1.022-2.134-1.199c-0.842-0.227-1.722-0.292-2.59-0.192c-1.212,0.159-2.414,0.399-3.596,0.72l-7.589,1.906
			l5.383,21.46l8.644-2.169c1.253-0.281,2.463-0.729,3.596-1.332c0.895-0.514,1.681-1.197,2.314-2.014
			c0.55-0.706,0.934-1.524,1.126-2.397C300.934,403.254,300.901,402.239,300.638,401.273z M287.222,397.821l-1.138-4.544
			l0.372-0.095c0.983-0.24,1.69-0.408,2.181-0.515c0.432-0.106,0.878-0.13,1.32-0.073c0.404,0.064,0.769,0.272,1.031,0.588
			c0.249,0.292,0.429,0.635,0.528,1.007h-0.012c0.125,0.419,0.157,0.862,0.095,1.294c-0.088,0.425-0.331,0.801-0.683,1.055
			c-0.314,0.265-0.677,0.469-1.067,0.6l-1.953,0.515L287.222,397.821z M295.063,404.079c-0.141,0.481-0.435,0.902-0.839,1.199
			c-0.446,0.345-0.949,0.609-1.486,0.779c-0.537,0.16-1.507,0.413-2.914,0.756l-0.287,0.073l-1.342-5.383l0.995-0.24l2.302-0.564
			c0.458-0.115,0.931-0.156,1.403-0.119c0.519,0.029,1.017,0.218,1.426,0.54c0.41,0.393,0.686,0.904,0.792,1.462l-0.06-0.012
			C295.187,403.062,295.191,403.583,295.063,404.079z"/>
		<path fill="#42ADDF" d="M329.338,433.198c0.503,0.408,0.912,0.744,1.199,1.02l-1.403,5.082l-0.54-0.144
			c-0.203-0.299-0.455-0.671-0.754-1.091c-0.327-0.458-0.683-0.895-1.067-1.306c-0.432-0.449-0.912-0.85-1.427-1.199
			c-0.541-0.384-1.146-0.668-1.787-0.839c-0.72-0.21-1.471-0.287-2.218-0.228c-0.777,0.091-1.525,0.349-2.193,0.756
			c-0.765,0.475-1.422,1.102-1.93,1.846c-0.642,0.961-1.12,2.023-1.415,3.141c-0.323,1.104-0.453,2.255-0.384,3.404
			c0.082,0.907,0.355,1.785,0.804,2.577c0.384,0.661,0.907,1.229,1.534,1.667c0.59,0.417,1.247,0.729,1.943,0.922
			c0.685,0.193,1.4,0.262,2.11,0.204c0.621-0.038,1.237-0.147,1.834-0.323c0.515-0.148,1.02-0.333,1.51-0.552
			c0.457-0.204,0.839-0.396,1.199-0.564l0.491,0.133l-1.391,5.023l-1.534,0.239c-0.579,0.094-1.164,0.147-1.751,0.156
			c-0.67,0.038-1.342,0.038-2.014,0c-0.84-0.121-1.67-0.31-2.482-0.562c-2.869-0.645-5.339-2.463-6.809-5.011
			c-1.354-2.399-1.534-5.444-0.564-8.945c0.661-3.004,2.478-5.628,5.06-7.301c2.568-1.484,5.651-1.794,8.464-0.851
			c0.768,0.203,1.521,0.46,2.254,0.768c0.63,0.277,1.243,0.593,1.834,0.946C328.41,432.479,328.886,432.824,329.338,433.198z"/>
		<path fill="#42ADDF" d="M338.257,425.658l-27.094-7.528c-0.021-0.008-0.044-0.014-0.065-0.018
			c-3.196-0.868-6.488,1.019-7.356,4.213l-7.493,27.095c-0.005,0.017-0.009,0.033-0.014,0.051c-0.869,3.194,1.016,6.488,4.21,7.357
			l27.094,7.516c0.018,0.006,0.035,0.011,0.051,0.015c3.194,0.869,6.49-1.016,7.359-4.21l7.504-27.071
			c0.006-0.021,0.012-0.044,0.018-0.065C343.34,429.818,341.453,426.526,338.257,425.658z M338.69,434.387l-6.283,22.683
			c-0.739,2.68-3.513,4.254-6.193,3.513c-0.002,0-0.003-0.001-0.005-0.001l-22.683-6.281c-2.683-0.742-4.26-3.515-3.524-6.199
			l6.281-22.683c0.747-2.683,3.524-4.26,6.21-3.524l22.683,6.281C337.861,428.922,339.433,431.702,338.69,434.387z"/>
		<path fill="#42ADDF" d="M330.537,434.219l-1.403,5.082l-0.54-0.144c-0.203-0.299-0.455-0.671-0.754-1.091
			c-0.327-0.458-0.683-0.895-1.067-1.306c-0.432-0.449-0.912-0.85-1.427-1.199c-0.541-0.384-1.146-0.668-1.787-0.839
			c-0.72-0.21-1.471-0.287-2.218-0.228c-0.777,0.091-1.525,0.349-2.193,0.756c-0.765,0.475-1.422,1.102-1.93,1.846
			c-0.642,0.961-1.12,2.023-1.415,3.141c-0.323,1.104-0.453,2.255-0.384,3.404c0.082,0.907,0.355,1.785,0.804,2.577
			c0.384,0.661,0.907,1.229,1.534,1.667c0.59,0.417,1.247,0.729,1.943,0.922c0.685,0.193,1.4,0.262,2.11,0.204
			c0.621-0.038,1.237-0.147,1.834-0.323c0.515-0.148,1.02-0.333,1.51-0.552c0.457-0.204,0.839-0.396,1.199-0.564l0.491,0.133
			l-1.391,5.023l-1.534,0.239c-0.579,0.094-1.164,0.147-1.751,0.156c-0.67,0.038-1.342,0.038-2.014,0
			c-0.84-0.121-1.67-0.31-2.482-0.562c-2.869-0.645-5.339-2.463-6.809-5.011c-1.354-2.399-1.534-5.444-0.564-8.945
			c0.661-3.004,2.478-5.628,5.06-7.301c2.568-1.484,5.651-1.794,8.464-0.851c0.768,0.203,1.521,0.46,2.254,0.768
			c0.63,0.277,1.243,0.593,1.834,0.946c0.499,0.311,0.975,0.656,1.427,1.031C329.842,433.607,330.25,433.942,330.537,434.219z"/>
		<path fill="#42ADDF" d="M330.537,434.219l-1.403,5.082l-0.54-0.144c-0.203-0.299-0.455-0.671-0.754-1.091
			c-0.327-0.458-0.683-0.895-1.067-1.306c-0.432-0.449-0.912-0.85-1.427-1.199c-0.541-0.384-1.146-0.668-1.787-0.839
			c-0.72-0.21-1.471-0.287-2.218-0.228c-0.777,0.091-1.525,0.349-2.193,0.756c-0.765,0.475-1.422,1.102-1.93,1.846
			c-0.642,0.961-1.12,2.023-1.415,3.141c-0.323,1.104-0.453,2.255-0.384,3.404c0.082,0.907,0.355,1.785,0.804,2.577
			c0.384,0.661,0.907,1.229,1.534,1.667c0.59,0.417,1.247,0.729,1.943,0.922c0.685,0.193,1.4,0.262,2.11,0.204
			c0.621-0.038,1.237-0.147,1.834-0.323c0.515-0.148,1.02-0.333,1.51-0.552c0.457-0.204,0.839-0.396,1.199-0.564l0.491,0.133
			l-1.391,5.023l-1.534,0.239c-0.579,0.094-1.164,0.147-1.751,0.156c-0.67,0.038-1.342,0.038-2.014,0
			c-0.84-0.121-1.67-0.31-2.482-0.562c-2.869-0.645-5.339-2.463-6.809-5.011c-1.354-2.399-1.534-5.444-0.564-8.945
			c0.661-3.004,2.478-5.628,5.06-7.301c2.568-1.484,5.651-1.794,8.464-0.851c0.768,0.203,1.521,0.46,2.254,0.768
			c0.63,0.277,1.243,0.593,1.834,0.946c0.499,0.311,0.975,0.656,1.427,1.031C329.842,433.607,330.25,433.942,330.537,434.219z"/>
	</g>
</g>
</svg>
