<?xml version="1.0" encoding="utf-8"?>
<!-- Generator: Adobe Illustrator 17.0.0, SVG Export Plug-In . SVG Version: 6.00 Build 0)  -->
<!DOCTYPE svg PUBLIC "-//W3C//DTD SVG 1.1//EN" "http://www.w3.org/Graphics/SVG/1.1/DTD/svg11.dtd">
<svg version="1.1" id="Слой_1" xmlns="http://www.w3.org/2000/svg" xmlns:xlink="http://www.w3.org/1999/xlink" x="0px" y="0px"
	 width="90px" height="90px" viewBox="252.64 375.945 90 90" enable-background="new 252.64 375.945 90 90" xml:space="preserve">
<title>Ресурс 11</title>
<g id="Слой_2">
	<g id="Layer_1">
		<path fill="#42ADDF" d="M267.241,430.806c-1.199-1.784-2.31-3.597-3.363-5.41H252.62v-4.123h9.036
			c-3.689-6.76-5.258-14.473-4.503-22.136c0.767-5.986,3.738-11.47,8.334-15.381c3.376-2.781,7.515-4.473,11.872-4.854
			c4.363-0.355,8.742,0.452,12.691,2.339c3.807,1.841,7.123,4.556,9.679,7.925c2.566-3.336,5.882-6.021,9.679-7.837
			c3.942-1.915,8.321-2.752,12.691-2.427c4.356,0.356,8.504,2.017,11.901,4.766c4.576,3.923,7.535,9.403,8.305,15.381
			c1.579,9.738-2.924,21.142-10.03,31.669c-10.498,15.644-18.247,20.469-32.166,31.23
			C286.957,454.162,275.724,443.519,267.241,430.806z M268.615,421.273h13.627l0.497,1.316c0.7,2.121,1.52,4.201,2.456,6.229
			c2.135,0.351,3.86-18.071,6.667-21.025c0.694-0.912,1.997-1.089,2.909-0.395c0.149,0.113,0.282,0.246,0.395,0.395
			c1.602,2.848,2.756,5.925,3.421,9.123c0.924,3.374,2.037,6.693,3.334,9.942c0.292-0.731,0.556-1.667,0.79-2.486
			c0.643-2.369,1.199-4.357,3.363-4.357h16.931v4.094h-14.621c-2.749,0-1.491,5.527-5.205,7.632c-1.725,0.965-3.129,0-4.299-1.959
			c-1.717-3.776-3.115-7.688-4.182-11.697c-0.38-1.287-0.731-2.515-1.082-3.568c-0.994,4.006-4.035,22.224-7.661,21.668l0,0
			c-2.164-0.351-5.293-7.603-6.55-10.644h-8.422l1.316,1.988c7.247,10.844,16.569,20.147,27.429,27.37
			c10.863-7.23,20.194-16.531,27.458-27.37c6.287-9.504,10.235-19.387,9.036-27.429c-0.52-4.527-2.709-8.698-6.141-11.697
			c-2.428-1.965-5.395-3.148-8.509-3.392c-3.27-0.259-6.55,0.356-9.504,1.784c-3.67,1.814-6.723,4.673-8.773,8.217l-0.497,0.906
			c-0.362,0.662-0.684,1.346-0.965,2.047h-4.094c-0.281-0.701-0.603-1.384-0.965-2.047l-0.497-0.906
			c-2.036-3.555-5.092-6.418-8.773-8.217c-2.953-1.427-6.234-2.043-9.504-1.784c-3.167,0.26-6.178,1.484-8.626,3.509
			c-3.431,2.999-5.621,7.169-6.141,11.697c-1.023,6.17,1.257,13.773,5.322,21.054H268.615z"/>
	</g>
</g>
</svg>
