<svg xmlns="http://www.w3.org/2000/svg" viewBox="0 0 90 90"><defs><style>.cls-1{fill:#00b7f6;fill-rule:evenodd;}</style></defs><title>Ресурс 1</title><g id="Слой_2" data-name="Слой 2"><g id="Layer_1" data-name="Layer 1"><path class="cls-1" d="M50.13,0A28.4,28.4,0,0,1,69.77,7.76a25.65,25.65,0,0,1,0,37.49,28.73,28.73,0,0,1-39.28,0,25.67,25.67,0,0,1,0-37.49A28.4,28.4,0,0,1,50.13,0ZM8.34,38H0V90H8.34V74.8H81.65V90H90V67l-.58-.11H8.34V38Zm3,12.48c.31,4.77,2.16,8.54,5.35,11.1s7.52,3.81,12.94,3.68l1.14,0,2-.12-.08-1.94a12.12,12.12,0,0,0-.24-1.93,17.51,17.51,0,0,0-6.2-9.72,17.18,17.18,0,0,0-11.32-4.07,13,13,0,0,0-2,.21L11.22,48l0,1.68c0,.33,0,.61,0,.83Zm4.27.92a10.65,10.65,0,0,0,3.76,7.15c2.12,1.7,5.11,2.65,8.87,2.75a13.85,13.85,0,0,0-4.65-6.77,13,13,0,0,0-8-3.13ZM36,19.6H33.89V34.82h8.17v7.8H58v-7.8h8.18V19.6H58V11.8H42.06v7.8Zm8.18,4H38.06v7.24h8.17v7.81h7.6V30.83H62V23.59H53.83V15.78h-7.6v7.81Zm22.67-13a24.4,24.4,0,0,0-33.38,0,21.81,21.81,0,0,0,0,31.85,24.4,24.4,0,0,0,33.38,0,21.81,21.81,0,0,0,0-31.85Z"/></g></g></svg>