<?xml version="1.0" encoding="iso-8859-1"?>
<!-- Generator: Adobe Illustrator 19.0.0, SVG Export Plug-In . SVG Version: 6.00 Build 0)  -->
<svg xmlns="http://www.w3.org/2000/svg" xmlns:xlink="http://www.w3.org/1999/xlink" version="1.1" id="Capa_1" x="0px" y="0px" viewBox="0 0 491.922 491.922" style="enable-background:new 0 0 491.922 491.922;" xml:space="preserve" width="512px" height="512px">
<g>
	<g>
		<path d="M290.111,460h-10.4c-4.4,0-8,3.6-8,8c0,4.4,3.6,8,8,8h10.4c4.4,0,8-3.6,8-8C298.111,463.6,294.611,460,290.111,460z" fill="#37b6f0"/>
	</g>
</g>
<g>
	<g>
		<path d="M347.211,351h-52.2v-19.4c45.1-19.5,75.3-63,77.9-112.1c17.2-4.6,27.4-22.3,22.8-39.5c-1.5-5.5-4.4-10.5-8.5-14.6    c-4-3.9-8.9-6.7-14.3-8.2V99h21.3c4.4,0,8-3.7,8-8.1c0-50.1-40.7-90.9-90.7-90.9h-85.2c-17.2,0-33.1,8.9-42.1,23.6    c-31.1,1.2-48.6,18.4-57.9,33c-6.3,10.1-10.6,21.4-12.5,33.2c0,0.4,0,0.7,0.1,1.1v66.2c-5.5,1.3-10.5,4.2-14.4,8.3    c-12.7,12.6-12.7,33-0.2,45.7c4,4,9,6.9,14.5,8.4c1.5,32,14.9,62.3,37.6,84.9c12.8,12.6,27.9,22.5,44.5,29.2V351h-51.2    c-50.3,0-90.8,41.1-90.8,91.3v25.9c0,4.4,3.6,8,8,8c4.4,0,8-3.6,8-8v-25.9c0-40.3,31.7-73.4,72-75.1v15.9    c-21.4,4-36.9,22.7-37,44.5v52.2c0,4.5,3.6,8.1,8,8.2h14.9c4.4,0,8-3.6,8-8c0-4.4-3.6-8-8-8h-6.8v-44.4c0-7.8,3.1-15.3,8.6-20.9    c5.3-5.5,12.7-8.7,20.3-8.8h0.4c16.3,0.1,29.5,13.3,29.7,29.6V472h-11c-4.4,0-8,3.6-8,8c0,4.4,3.6,8,8,8h18.6    c4.5,0,8.2-3.6,8.4-8.2v-52.2c0-22.4-17-41-38-44.6v-16h43.1l36.9,37v64.2c0,4.4,3.6,8,8,8c4.4,0,8-3.6,8-8V404l36.6-37h49.4v52.1    c0,0,0.2,0,0.2,0.1c-19.8,4.5-32.2,24.3-27.7,44.1s24.3,32.2,44.1,27.7c19.8-4.5,32.2-24.3,27.7-44.1c-1.5-6.7-5-12.9-9.9-17.8    c-5-4.9-11.3-8.3-18.2-9.8h-0.2v-51.4c37.8,4.4,66.2,36.5,66,74.6v25.9c0,4.4,3.6,8,8,8c4.4,0,8-3.6,8-8v-25.9    C438.011,392.1,397.511,351,347.211,351z M373.011,174.5c1.1,0.6,2.1,1.4,3,2.3c3.1,3.1,4.8,7.2,4.7,11.6c0.2,5.7-2.8,11-7.7,13.8    V174.5z M113.911,202.139c-4.938-2.814-7.899-8.078-7.8-13.739c0-4.3,1.7-8.5,4.8-11.6c0.9-0.9,1.9-1.6,3-2.3V202.139z     M196.111,35.5c0.1-0.3,0.3-0.5,0.4-0.8c5.5-11.5,17.2-18.7,29.9-18.7h85.2c38.3,0,70.4,28.9,74.3,67h-159.5c-0.7,0-1.4,0-2-0.1    c-17.6-1.1-31.4-15.7-31.4-33.4C193.011,44.7,194.011,39.9,196.111,35.5z M130.011,91.6c0-2.5,2.6-14.4,10.1-26.4    c9-14.2,21.6-22.6,37.8-24.9c-4.7,23.8,8.7,47.5,31.5,55.7c-15.3,16.9-33.4,28.2-54.1,33.5c-8.3,2.1-16.8,3.1-25.3,3.1V91.6z     M279.011,355.9l-33.4,33.5l-33.6-33.5v-17.2c10.2,2.4,20.6,3.7,31.1,3.7c12.2,0.1,24.3-1.6,35.9-5V355.9z M283.311,319.2    c-0.3,0.1-0.5,0.2-0.8,0.3c-58.9,21.5-124-8.7-145.6-67.6c-4.6-12.6-7-25.9-6.9-39.3v-64.1c0,0,0.7,0,1.2,0    c9.2,0,18.3-1.2,27.2-3.4c18.9-4.7,46-16.2,69.5-46.2h129.1v113.8C357.111,260.1,327.711,302.6,283.311,319.2z M363.211,440.3    c8.2,8.1,8.2,21.3,0.1,29.4c-8.1,8.2-21.3,8.2-29.4,0.1c-8.2-8.1-8.2-21.3-0.1-29.4c3.9-3.9,9.2-6.1,14.7-6.1    S359.311,436.5,363.211,440.3z" fill="#37b6f0"/>
	</g>
</g>
<g>
	<g>
		<path d="M290.111,429h-10.4c-4.4,0-8,3.6-8,8c0,4.4,3.6,8,8,8h10.4c4.4,0,8-3.6,8-8C298.111,432.6,294.611,429,290.111,429z" fill="#37b6f0"/>
	</g>
</g>
<g>
	<g>
		<path d="M212.011,162c-4.4,0-8,3.6-8,8v5.2c0,7-5.6,12.7-12.6,12.8c0,0,0,0-0.1,0c-3.3,0-6.5-1.4-8.8-3.7c-2.3-2.4-3.6-5.7-3.5-9    V170c0-4.4-3.6-8-8-8c-4.4,0-8,3.6-8,8v5.2c0,15.7,12.8,28.5,28.5,28.5s28.5-12.8,28.5-28.5V170    C220.011,165.6,216.411,162,212.011,162z" fill="#37b6f0"/>
	</g>
</g>
<g>
	<g>
		<path d="M316.011,162c-4.4,0-8,3.6-8,8v5.2c0,7-5.7,12.8-12.7,12.8c-3.3,0-6.5-1.4-8.8-3.7c-2.3-2.4-3.6-5.7-3.5-9V170    c0-4.4-3.6-8-8-8c-4.4,0-8,3.6-8,8v5.2c-0.2,15.7,12.2,28.5,27.9,28.8c0.1,0,0.3,0,0.4,0c15.9,0,28.7-12.9,28.7-28.8V170    C324.011,165.6,320.411,162,316.011,162z" fill="#37b6f0"/>
	</g>
</g>
<g>
</g>
<g>
</g>
<g>
</g>
<g>
</g>
<g>
</g>
<g>
</g>
<g>
</g>
<g>
</g>
<g>
</g>
<g>
</g>
<g>
</g>
<g>
</g>
<g>
</g>
<g>
</g>
<g>
</g>
</svg>
