<?xml version="1.0" encoding="utf-8"?>
<!-- Generator: Adobe Illustrator 17.0.0, SVG Export Plug-In . SVG Version: 6.00 Build 0)  -->
<!DOCTYPE svg PUBLIC "-//W3C//DTD SVG 1.1//EN" "http://www.w3.org/Graphics/SVG/1.1/DTD/svg11.dtd">
<svg version="1.1" id="Слой_1" xmlns="http://www.w3.org/2000/svg" xmlns:xlink="http://www.w3.org/1999/xlink" x="0px" y="0px"
	 width="90px" height="90px" viewBox="252.64 375.945 90 90" enable-background="new 252.64 375.945 90 90" xml:space="preserve">
<title>Ресурс 10</title>
<g id="Слой_2">
	<g id="Layer_1">
		<path fill="#42ADDF" d="M310.69,409.245c-0.45-1.5-1.31-2.84-2.47-3.88c-2.05-1.84-4.7-2.87-7.45-2.9h-1.22v-3.98
			c2.11-1.12,2.91-3.73,1.79-5.84c-1.13-2.1-3.74-2.9-5.85-1.78c-2.1,1.12-2.9,3.73-1.78,5.84c0.4,0.76,1.02,1.38,1.78,1.78v4.35
			c-2.98,0.49-5.92,1.21-8.78,2.16l1.91,5.79c2.32-0.78,4.7-1.39,7.1-1.83v6.64c-1.77,0.34-3.49,0.92-5.1,1.74
			c-2.31,1.13-3.81,3.46-3.88,6.03c0,5.37,4.43,6.76,8.98,7.83v2.09c-3.13,0.98-5.79,2.17-5.79,5.8c0,4.32,2.89,5.19,5.79,5.54v5.24
			h4.06v-3.48l5.8,0.35c0.06-2.28-0.73-4.5-2.23-6.23c-0.92-0.96-2.16-1.56-3.48-1.68v-0.44c3.48-1.04,6.7-2.4,6.58-6.64
			c0-3.74-2.9-4.96-6.58-5.8v-4.93c0.64,0,1.31-0.29,1.94-0.46c1.53-0.43,3.01-1.02,4.41-1.77c2.04-0.99,3.63-2.71,4.47-4.81
			C311.21,412.445,311.21,410.775,310.69,409.245z M295.75,424.905c-1.65-0.44-2.9-1.1-2.9-1.39s0.32-0.58,0.79-0.87
			c0.66-0.34,1.36-0.62,2.08-0.81h0.03V424.905z M300.28,431.955l-0.5,0.14v-0.32C300.1,431.805,300.28,431.955,300.28,431.955z
			 M305.06,411.855c-0.35,0.7-0.93,1.26-1.65,1.57c-1.06,0.54-2.18,0.97-3.34,1.27h-0.29v-6.14h1.08c1.26,0,2.48,0.45,3.45,1.27
			c0.34,0.31,0.6,0.7,0.75,1.13C305.18,411.245,305.18,411.565,305.06,411.855z M286.47,405.075c0.08-0.03,0.16-0.05,0.24-0.08
			v-0.01L286.47,405.075z M310.69,409.245c-0.45-1.5-1.31-2.84-2.47-3.88c-2.05-1.84-4.7-2.87-7.45-2.9h-1.22v-3.98
			c2.11-1.12,2.91-3.73,1.79-5.84c-1.13-2.1-3.74-2.9-5.85-1.78c-2.1,1.12-2.9,3.73-1.78,5.84c0.4,0.76,1.02,1.38,1.78,1.78v4.35
			c-2.98,0.49-5.92,1.21-8.78,2.16l1.91,5.79c2.32-0.78,4.7-1.39,7.1-1.83v6.64c-1.77,0.34-3.49,0.92-5.1,1.74
			c-2.31,1.13-3.81,3.46-3.88,6.03c0,5.37,4.43,6.76,8.98,7.83v2.09c-3.13,0.98-5.79,2.17-5.79,5.8c0,4.32,2.89,5.19,5.79,5.54v5.24
			h4.06v-3.48l5.8,0.35c0.06-2.28-0.73-4.5-2.23-6.23c-0.92-0.96-2.16-1.56-3.48-1.68v-0.44c3.48-1.04,6.7-2.4,6.58-6.64
			c0-3.74-2.9-4.96-6.58-5.8v-4.93c0.64,0,1.31-0.29,1.94-0.46c1.53-0.43,3.01-1.02,4.41-1.77c2.04-0.99,3.63-2.71,4.47-4.81
			C311.21,412.445,311.21,410.775,310.69,409.245z M295.75,424.905c-1.65-0.44-2.9-1.1-2.9-1.39s0.32-0.58,0.79-0.87
			c0.66-0.34,1.36-0.62,2.08-0.81h0.03V424.905z M300.28,431.955l-0.5,0.14v-0.32C300.1,431.805,300.28,431.955,300.28,431.955z
			 M305.06,411.855c-0.35,0.7-0.93,1.26-1.65,1.57c-1.06,0.54-2.18,0.97-3.34,1.27h-0.29v-6.14h1.08c1.26,0,2.48,0.45,3.45,1.27
			c0.34,0.31,0.6,0.7,0.75,1.13C305.18,411.245,305.18,411.565,305.06,411.855z M286.47,405.075c0.08-0.03,0.16-0.05,0.24-0.08
			v-0.01L286.47,405.075z M286.47,405.075c0.08-0.03,0.16-0.05,0.24-0.08v-0.01L286.47,405.075z M310.69,409.245
			c-0.45-1.5-1.31-2.84-2.47-3.88c-2.05-1.84-4.7-2.87-7.45-2.9h-1.22v-3.98c2.11-1.12,2.91-3.73,1.79-5.84
			c-1.13-2.1-3.74-2.9-5.85-1.78c-2.1,1.12-2.9,3.73-1.78,5.84c0.4,0.76,1.02,1.38,1.78,1.78v4.35c-2.98,0.49-5.92,1.21-8.78,2.16
			l1.91,5.79c2.32-0.78,4.7-1.39,7.1-1.83v6.64c-1.77,0.34-3.49,0.92-5.1,1.74c-2.31,1.13-3.81,3.46-3.88,6.03
			c0,5.37,4.43,6.76,8.98,7.83v2.09c-3.13,0.98-5.79,2.17-5.79,5.8c0,4.32,2.89,5.19,5.79,5.54v5.24h4.06v-3.48l5.8,0.35
			c0.06-2.28-0.73-4.5-2.23-6.23c-0.92-0.96-2.16-1.56-3.48-1.68v-0.44c3.48-1.04,6.7-2.4,6.58-6.64c0-3.74-2.9-4.96-6.58-5.8v-4.93
			c0.64,0,1.31-0.29,1.94-0.46c1.53-0.43,3.01-1.02,4.41-1.77c2.04-0.99,3.63-2.71,4.47-4.81
			C311.21,412.445,311.21,410.775,310.69,409.245z M295.75,424.905c-1.65-0.44-2.9-1.1-2.9-1.39s0.32-0.58,0.79-0.87
			c0.66-0.34,1.36-0.62,2.08-0.81h0.03V424.905z M300.28,431.955l-0.5,0.14v-0.32C300.1,431.805,300.28,431.955,300.28,431.955z
			 M305.06,411.855c-0.35,0.7-0.93,1.26-1.65,1.57c-1.06,0.54-2.18,0.97-3.34,1.27h-0.29v-6.14h1.08c1.26,0,2.48,0.45,3.45,1.27
			c0.34,0.31,0.6,0.7,0.75,1.13C305.18,411.245,305.18,411.565,305.06,411.855z M310.69,409.245c-0.45-1.5-1.31-2.84-2.47-3.88
			c-2.05-1.84-4.7-2.87-7.45-2.9h-1.22v-3.98c2.11-1.12,2.91-3.73,1.79-5.84c-1.13-2.1-3.74-2.9-5.85-1.78
			c-2.1,1.12-2.9,3.73-1.78,5.84c0.4,0.76,1.02,1.38,1.78,1.78v4.35c-2.98,0.49-5.92,1.21-8.78,2.16l1.91,5.79
			c2.32-0.78,4.7-1.39,7.1-1.83v6.64c-1.77,0.34-3.49,0.92-5.1,1.74c-2.31,1.13-3.81,3.46-3.88,6.03c0,5.37,4.43,6.76,8.98,7.83
			v2.09c-3.13,0.98-5.79,2.17-5.79,5.8c0,4.32,2.89,5.19,5.79,5.54v5.24h4.06v-3.48l5.8,0.35c0.06-2.28-0.73-4.5-2.23-6.23
			c-0.92-0.96-2.16-1.56-3.48-1.68v-0.44c3.48-1.04,6.7-2.4,6.58-6.64c0-3.74-2.9-4.96-6.58-5.8v-4.93c0.64,0,1.31-0.29,1.94-0.46
			c1.53-0.43,3.01-1.02,4.41-1.77c2.04-0.99,3.63-2.71,4.47-4.81C311.21,412.445,311.21,410.775,310.69,409.245z M295.75,424.905
			c-1.65-0.44-2.9-1.1-2.9-1.39s0.32-0.58,0.79-0.87c0.66-0.34,1.36-0.62,2.08-0.81h0.03V424.905z M300.28,431.955l-0.5,0.14v-0.32
			C300.1,431.805,300.28,431.955,300.28,431.955z M305.06,411.855c-0.35,0.7-0.93,1.26-1.65,1.57c-1.06,0.54-2.18,0.97-3.34,1.27
			h-0.29v-6.14h1.08c1.26,0,2.48,0.45,3.45,1.27c0.34,0.31,0.6,0.7,0.75,1.13C305.18,411.245,305.18,411.565,305.06,411.855z
			 M286.47,405.075c0.08-0.03,0.16-0.05,0.24-0.08v-0.01L286.47,405.075z M341.16,428.785l-12.85-7.42l12.76-7.36l1.74-1.02
			l-0.9-1.82l-13.13-22.77l-1.02-1.76l-1.77,1.01l-12.84,7.42v-16.87h-30.44v16.87l-12.88-7.42l-1.74-1.01l-1.01,1.76l-13.14,22.82
			l-1.01,1.77l1.77,0.96l12.73,7.42l-12.76,7.42l-1.74,1.02l1.01,1.74l13.14,22.76l1.01,1.77l1.77-1.02l12.85-7.27v16.87h30.35
			v-16.87l12.93,7.27l1.77,1.02l1.02-1.77l13.13-22.76l1.02-1.74L341.16,428.785z M326.2,450.685l-14.15-8.33l-3.08-1.76v20h-22.18
			v-19.86l-3.07,1.77l-14.15,8.18l-11.1-19.4l14.15-8.18l2.89-1.74l-2.89-1.77l-14.15-8.17l11.1-19.23l14.32,8.18l2.9,1.74v-19.83
			h22.18v19.83l3.05-1.74l14.18-8.18l11.1,19.37l-14.18,8.18l-3.04,1.77l3.07,1.74l14.15,8.17L326.2,450.685z M308.22,405.365
			c-2.05-1.84-4.7-2.87-7.45-2.9h-1.22v-3.98c2.11-1.12,2.91-3.73,1.79-5.84c-1.13-2.1-3.74-2.9-5.85-1.78
			c-2.1,1.12-2.9,3.73-1.78,5.84c0.4,0.76,1.02,1.38,1.78,1.78v4.35c-2.98,0.49-5.92,1.21-8.78,2.16l1.91,5.79
			c2.32-0.78,4.7-1.39,7.1-1.83v6.64c-1.77,0.34-3.49,0.92-5.1,1.74c-2.31,1.13-3.81,3.46-3.88,6.03c0,5.37,4.43,6.76,8.98,7.83
			v2.09c-3.13,0.98-5.79,2.17-5.79,5.8c0,4.32,2.89,5.19,5.79,5.54v5.24h4.06v-3.48l5.8,0.35c0.06-2.28-0.73-4.5-2.23-6.23
			c-0.92-0.96-2.16-1.56-3.48-1.68v-0.44c3.48-1.04,6.7-2.4,6.58-6.64c0-3.74-2.9-4.96-6.58-5.8v-4.93c0.64,0,1.31-0.29,1.94-0.46
			c1.53-0.43,3.01-1.02,4.41-1.77c2.04-0.99,3.63-2.71,4.47-4.81c0.52-1.53,0.52-3.2,0-4.73
			C310.24,407.745,309.38,406.405,308.22,405.365z M295.75,424.905c-1.65-0.44-2.9-1.1-2.9-1.39s0.32-0.58,0.79-0.87
			c0.66-0.34,1.36-0.62,2.08-0.81h0.03V424.905z M300.28,431.955l-0.5,0.14v-0.32C300.1,431.805,300.28,431.955,300.28,431.955z
			 M305.06,411.855c-0.35,0.7-0.93,1.26-1.65,1.57c-1.06,0.54-2.18,0.97-3.34,1.27h-0.29v-6.14h1.08c1.26,0,2.48,0.45,3.45,1.27
			c0.34,0.31,0.6,0.7,0.75,1.13C305.18,411.245,305.18,411.565,305.06,411.855z M286.47,405.075c0.08-0.03,0.16-0.05,0.24-0.08
			v-0.01L286.47,405.075z M286.47,405.075c0.08-0.03,0.16-0.05,0.24-0.08v-0.01L286.47,405.075z M310.69,409.245
			c-0.45-1.5-1.31-2.84-2.47-3.88c-2.05-1.84-4.7-2.87-7.45-2.9h-1.22v-3.98c2.11-1.12,2.91-3.73,1.79-5.84
			c-1.13-2.1-3.74-2.9-5.85-1.78c-2.1,1.12-2.9,3.73-1.78,5.84c0.4,0.76,1.02,1.38,1.78,1.78v4.35c-2.98,0.49-5.92,1.21-8.78,2.16
			l1.91,5.79c2.32-0.78,4.7-1.39,7.1-1.83v6.64c-1.77,0.34-3.49,0.92-5.1,1.74c-2.31,1.13-3.81,3.46-3.88,6.03
			c0,5.37,4.43,6.76,8.98,7.83v2.09c-3.13,0.98-5.79,2.17-5.79,5.8c0,4.32,2.89,5.19,5.79,5.54v5.24h4.06v-3.48l5.8,0.35
			c0.06-2.28-0.73-4.5-2.23-6.23c-0.92-0.96-2.16-1.56-3.48-1.68v-0.44c3.48-1.04,6.7-2.4,6.58-6.64c0-3.74-2.9-4.96-6.58-5.8v-4.93
			c0.64,0,1.31-0.29,1.94-0.46c1.53-0.43,3.01-1.02,4.41-1.77c2.04-0.99,3.63-2.71,4.47-4.81
			C311.21,412.445,311.21,410.775,310.69,409.245z M295.75,424.905c-1.65-0.44-2.9-1.1-2.9-1.39s0.32-0.58,0.79-0.87
			c0.66-0.34,1.36-0.62,2.08-0.81h0.03V424.905z M300.28,431.955l-0.5,0.14v-0.32C300.1,431.805,300.28,431.955,300.28,431.955z
			 M305.06,411.855c-0.35,0.7-0.93,1.26-1.65,1.57c-1.06,0.54-2.18,0.97-3.34,1.27h-0.29v-6.14h1.08c1.26,0,2.48,0.45,3.45,1.27
			c0.34,0.31,0.6,0.7,0.75,1.13C305.18,411.245,305.18,411.565,305.06,411.855z M310.69,409.245c-0.45-1.5-1.31-2.84-2.47-3.88
			c-2.05-1.84-4.7-2.87-7.45-2.9h-1.22v-3.98c2.11-1.12,2.91-3.73,1.79-5.84c-1.13-2.1-3.74-2.9-5.85-1.78
			c-2.1,1.12-2.9,3.73-1.78,5.84c0.4,0.76,1.02,1.38,1.78,1.78v4.35c-2.98,0.49-5.92,1.21-8.78,2.16l1.91,5.79
			c2.32-0.78,4.7-1.39,7.1-1.83v6.64c-1.77,0.34-3.49,0.92-5.1,1.74c-2.31,1.13-3.81,3.46-3.88,6.03c0,5.37,4.43,6.76,8.98,7.83
			v2.09c-3.13,0.98-5.79,2.17-5.79,5.8c0,4.32,2.89,5.19,5.79,5.54v5.24h4.06v-3.48l5.8,0.35c0.06-2.28-0.73-4.5-2.23-6.23
			c-0.92-0.96-2.16-1.56-3.48-1.68v-0.44c3.48-1.04,6.7-2.4,6.58-6.64c0-3.74-2.9-4.96-6.58-5.8v-4.93c0.64,0,1.31-0.29,1.94-0.46
			c1.53-0.43,3.01-1.02,4.41-1.77c2.04-0.99,3.63-2.71,4.47-4.81C311.21,412.445,311.21,410.775,310.69,409.245z M295.75,424.905
			c-1.65-0.44-2.9-1.1-2.9-1.39s0.32-0.58,0.79-0.87c0.66-0.34,1.36-0.62,2.08-0.81h0.03V424.905z M300.28,431.955l-0.5,0.14v-0.32
			C300.1,431.805,300.28,431.955,300.28,431.955z M305.06,411.855c-0.35,0.7-0.93,1.26-1.65,1.57c-1.06,0.54-2.18,0.97-3.34,1.27
			h-0.29v-6.14h1.08c1.26,0,2.48,0.45,3.45,1.27c0.34,0.31,0.6,0.7,0.75,1.13C305.18,411.245,305.18,411.565,305.06,411.855z
			 M286.47,405.075c0.08-0.03,0.16-0.05,0.24-0.08v-0.01L286.47,405.075z"/>
	</g>
</g>
</svg>
