<?xml version="1.0" encoding="utf-8"?>
<!-- Generator: Adobe Illustrator 17.0.0, SVG Export Plug-In . SVG Version: 6.00 Build 0)  -->
<!DOCTYPE svg PUBLIC "-//W3C//DTD SVG 1.1//EN" "http://www.w3.org/Graphics/SVG/1.1/DTD/svg11.dtd">
<svg version="1.1" id="Слой_1" xmlns="http://www.w3.org/2000/svg" xmlns:xlink="http://www.w3.org/1999/xlink" x="0px" y="0px"
	 width="90px" height="90px" viewBox="252.64 375.945 90 90" enable-background="new 252.64 375.945 90 90" xml:space="preserve">
<title>Ресурс 7</title>
<g id="Слой_2">
	<g id="Layer_1">
		<path fill="#42ADDF" d="M297.24,375.935c5.554-0.105,10.905,2.089,14.787,6.063c3.795,4.203,5.801,9.72,5.59,15.379
			c-0.043,6.83-2.168,13.485-6.092,19.076c-3.13,4.998-8.486,8.172-14.373,8.518c-5.846-0.378-11.152-3.548-14.255-8.518
			c-3.933-5.588-6.069-12.243-6.122-19.076c-0.216-5.665,1.802-11.188,5.619-15.379c3.903-3.926,9.254-6.066,14.787-5.915
			L297.24,375.935z M317.942,441.237c0.776-3.276,1.173-6.63,1.183-9.996c8.015,3.579,9.937,12.54,12.274,23.66l0.355,1.715
			l6.033-1.39l-0.355-1.715c-3.135-14.787-5.619-26.47-19.756-29.427c-0.519-1.207-1.321-2.272-2.336-3.105l-1.952,2.484
			c-1.153,0-2.396,0-3.667,0h-1.508l-0.917,1.242l-9.346,12.451l-9.346-12.451l-1.094-1.449h-1.479
			c-2.097-0.009-4.192,0.13-6.27,0.414l-2.1-2.632c-1.184,0.994-2.073,2.293-2.573,3.756c-11.534,3.993-13.871,15.054-16.799,28.717
			l-0.355,1.715l6.092,1.272l0.355-1.715c2.07-9.701,3.815-17.745,9.701-22.063c0.138,2.789,0.523,5.56,1.153,8.281
			c-1.767,0.826-3.279,2.113-4.377,3.726c-1.141,1.703-1.833,3.666-2.011,5.708c-0.195,2.054,0.027,4.126,0.651,6.092
			c1.149,3.809,3.545,7.121,6.802,9.405l2.336-3.431c-2.476-1.74-4.299-4.26-5.176-7.157c-0.439-1.466-0.609-2.999-0.503-4.525
			c0.118-1.331,0.565-2.612,1.301-3.726c0.885-1.247,2.135-2.187,3.579-2.691l0,0c1.669-0.333,3.403-0.083,4.909,0.71
			c1.204,0.637,2.223,1.574,2.957,2.721c0.819,1.287,1.372,2.725,1.627,4.229c0.592,3.022,0.122,6.157-1.331,8.872l3.638,1.952
			c1.873-3.503,2.499-7.539,1.774-11.445c-0.359-2.039-1.113-3.988-2.218-5.738c-1.099-1.717-2.602-3.138-4.377-4.14
			c-1.674-0.892-3.545-1.35-5.442-1.331c-0.755-3.097-1.113-6.277-1.065-9.464c2.014-0.685,4.115-1.083,6.24-1.183l11.416,15.231
			l1.922-1.449l1.952,1.449l11.327-15.231c1.2,0.045,2.396,0.174,3.579,0.384c0.181,3.349-0.128,6.707-0.917,9.967
			c-1.438,0.088-2.795,0.698-3.815,1.715c-1.093,1.102-1.709,2.589-1.715,4.141c0,3.267,2.648,5.915,5.915,5.915
			c1.552-0.007,3.039-0.623,4.14-1.715l0,0c2.235-2.296,2.235-5.955,0-8.251c-0.144-0.153-0.302-0.292-0.473-0.414L317.942,441.237z
			 M315.458,444.608c0.329,0.304,0.512,0.735,0.503,1.183c0.006,0.442-0.164,0.868-0.473,1.183l0,0
			c-0.312,0.317-0.738,0.498-1.183,0.503c-0.444-0.011-0.867-0.191-1.183-0.503c-0.653-0.64-0.664-1.689-0.024-2.342
			c0.008-0.008,0.016-0.016,0.024-0.024c0.307-0.326,0.736-0.508,1.183-0.503c0.448-0.009,0.879,0.174,1.183,0.503H315.458z
			 M281.18,394.005c3.893,1.252,7.984,1.773,12.067,1.538c3.148,0.016,6.21-1.025,8.695-2.957l3.638-3.431l1.449,4.525
			c0.207,0.503,1.42,1.035,2.81,1.42c1.18,0.349,2.409,0.499,3.638,0.444c-0.161-3.98-1.71-7.778-4.377-10.736
			c-3.12-3.144-7.402-4.857-11.83-4.732c-4.429-0.132-8.714,1.582-11.83,4.732c-2.33,2.541-3.808,5.746-4.229,9.168L281.18,394.005z
			 M313.18,401.843c-1.679-0.012-3.348-0.241-4.969-0.68c-1.676-0.435-3.252-1.188-4.643-2.218c-3.011,1.756-6.397,2.77-9.878,2.957
			c-4.239,0.2-8.482-0.279-12.569-1.42c0.548,4.876,2.318,9.535,5.146,13.545c2.352,3.899,6.434,6.43,10.972,6.802
			c4.536-0.377,8.617-2.907,10.972-6.802c2.56-3.629,4.25-7.798,4.939-12.185H313.18z M307.029,393.68L307.029,393.68z"/>
	</g>
</g>
</svg>
