<?xml version="1.0" encoding="iso-8859-1"?>
<!-- Generator: Adobe Illustrator 19.0.0, SVG Export Plug-In . SVG Version: 6.00 Build 0)  -->
<svg xmlns="http://www.w3.org/2000/svg" xmlns:xlink="http://www.w3.org/1999/xlink" version="1.1" id="Layer_1" x="0px" y="0px" viewBox="0 0 490.667 490.667" style="enable-background:new 0 0 490.667 490.667;" xml:space="preserve" width="512px" height="512px">
<g>
	<g>
		<g>
			<path d="M316.885,67.136c-4.16-4.16-10.923-4.16-15.083,0l-87.168,87.168c-4.16,4.16-4.16,10.923,0,15.083     c2.069,2.069,4.8,3.115,7.531,3.115s5.461-1.045,7.552-3.115l87.168-87.168C321.045,78.059,321.045,71.296,316.885,67.136z" fill="#37b6f0"/>
			<path d="M245.333,0C110.059,0,0,110.059,0,245.333s110.059,245.333,245.333,245.333s245.333-110.059,245.333-245.333     S380.608,0,245.333,0z M245.333,469.333c-123.52,0-224-100.48-224-224c0-57.92,22.293-110.613,58.496-150.421L176.917,192     l-3.115,3.115c-4.16,4.16-4.16,10.923,0,15.083l13.781,13.781l-35.115,35.115c-2.005,2.027-3.136,4.736-3.136,7.573v128     c0,4.309,2.603,8.213,6.592,9.856c1.301,0.533,2.709,0.811,4.075,0.811c2.773,0,5.504-1.088,7.552-3.115l99.115-99.115     l13.781,13.781c2.091,2.069,4.821,3.115,7.552,3.115c2.731,0,5.461-1.045,7.552-3.115l3.115-3.136l97.088,97.088     C355.947,447.04,303.253,469.333,245.333,469.333z M410.837,395.755L306.219,291.136L94.933,79.851     c39.787-36.224,92.48-58.517,150.4-58.517c123.52,0,224,100.48,224,224C469.333,303.253,447.04,355.947,410.837,395.755z" fill="#37b6f0"/>
			<path d="M380.885,173.76l-64-64c-2.005-1.963-4.715-3.093-7.552-3.093c-2.752,0.299-5.675,1.195-7.68,3.264     c-0.491,0.512-50.859,52.8-64.96,65.813c-2.155,1.963-3.371,4.715-3.435,7.616c-0.064,2.901,1.067,5.696,3.115,7.744     l63.573,63.573c2.005,2.005,4.715,3.115,7.552,3.115s5.547-1.131,7.552-3.115l65.835-65.835     C385.045,184.683,385.045,177.92,380.885,173.76z" fill="#37b6f0"/>
			<path d="M423.573,173.781c-4.16-4.16-10.923-4.16-15.083,0l-87.168,87.168c-4.203,4.181-4.203,10.923-0.021,15.083     c2.091,2.091,4.821,3.115,7.552,3.115s5.461-1.045,7.552-3.115l87.168-87.168C427.733,184.704,427.733,177.941,423.573,173.781z" fill="#37b6f0"/>
		</g>
	</g>
</g>
<g>
</g>
<g>
</g>
<g>
</g>
<g>
</g>
<g>
</g>
<g>
</g>
<g>
</g>
<g>
</g>
<g>
</g>
<g>
</g>
<g>
</g>
<g>
</g>
<g>
</g>
<g>
</g>
<g>
</g>
</svg>
