<?xml version="1.0" encoding="utf-8"?>
<!-- Generator: Adobe Illustrator 17.0.0, SVG Export Plug-In . SVG Version: 6.00 Build 0)  -->
<!DOCTYPE svg PUBLIC "-//W3C//DTD SVG 1.1//EN" "http://www.w3.org/Graphics/SVG/1.1/DTD/svg11.dtd">
<svg version="1.1" id="Слой_1" xmlns="http://www.w3.org/2000/svg" xmlns:xlink="http://www.w3.org/1999/xlink" x="0px" y="0px"
	 width="90px" height="90px" viewBox="252.64 375.945 90 90" enable-background="new 252.64 375.945 90 90" xml:space="preserve">
<title>Ресурс 3</title>
<g id="Слой_2">
	<g id="Layer_1">
		<path fill="#42ADDF" d="M303.049,423.727c-6.586-1.465-13.321-2.166-20.069-2.089v-0.109c-6.748-0.077-13.482,0.624-20.069,2.089
			c-6.32,1.681-10.225,4.311-10.225,7.702v21.697c0,3.362,3.905,6.021,10.225,7.566c6.585,1.478,13.321,2.18,20.069,2.089
			c6.748,0.091,13.484-0.611,20.069-2.089c6.32-1.545,10.225-4.204,10.225-7.566V431.32
			C313.274,427.93,309.369,425.299,303.049,423.727z M264.268,429.313c6.145-1.345,12.423-1.982,18.713-1.897l0.679-0.163
			l-18.714,6.155h-0.677c-3.607-0.895-5.858-1.654-5.858-2.033S260.661,430.235,264.268,429.313z M307.335,452.772
			c0,0.379-2.251,1.14-5.858,2.035h0.216c-6.145,1.345-12.423,1.982-18.713,1.899c-6.29,0.083-12.568-0.553-18.713-1.899
			c-3.607-0.895-5.858-1.655-5.858-2.035v-15.458h3.525c6.588,1.465,13.321,2.165,20.069,2.088
			c6.748,0.077,13.482-0.623,20.069-2.088h5.262V452.772z M301.693,432.894c-6.145,1.345-12.423,1.982-18.713,1.897h-9.764
			l20.856-6.942c2.564,0.281,5.108,0.717,7.62,1.302v-0.352c3.607,0.922,5.858,1.681,5.858,2.06S305.3,431.999,301.693,432.894z
			 M336.463,402.274l-25.169-18.468l0.136,0.107c-2.715-1.983-5.87-2.942-8.999-2.942c-4.591,0-9.126,2.063-12.128,5.98
			l-0.163,0.189l-0.568,0.76c-1.976,3.119-2.756,6.846-2.198,10.495c0.29,1.952,0.955,3.808,1.942,5.475
			c0.986,1.667,2.292,3.146,3.862,4.341l0.189,0.136l25.142,18.497c2.709,1.98,5.873,2.946,9.017,2.946
			c4.192,0,8.347-1.717,11.35-5.035l0.868-1.193C344.71,416.777,343.243,407.25,336.463,402.274z M296.867,403.793l-0.218-0.136
			c-4.151-3.067-5.123-8.873-2.196-13.126l0.704-0.706v-0.189c1.483-1.64,3.484-2.722,5.669-3.066
			c2.502-0.401,5.06,0.215,7.106,1.71l11.038,8.136l-11.283,15.351L296.867,403.793z M335.133,420.119
			c-1.871,2.535-4.76,3.877-7.687,3.877c-1.956,0-3.93-0.6-5.629-1.843l-11.064-8.136l11.213-15.259l-0.014-0.011l0.082-0.082
			l-0.068,0.092l11.052,8.125c2.036,1.492,3.385,3.74,3.743,6.239c0.08,0.499,0.119,1.001,0.119,1.5
			C336.88,416.579,336.277,418.502,335.133,420.119z"/>
	</g>
</g>
</svg>
