<?xml version="1.0" encoding="utf-8"?>
<!-- Generator: Adobe Illustrator 17.0.0, SVG Export Plug-In . SVG Version: 6.00 Build 0)  -->
<!DOCTYPE svg PUBLIC "-//W3C//DTD SVG 1.1//EN" "http://www.w3.org/Graphics/SVG/1.1/DTD/svg11.dtd">
<svg version="1.1" id="Слой_1" xmlns="http://www.w3.org/2000/svg" xmlns:xlink="http://www.w3.org/1999/xlink" x="0px" y="0px"
	 width="90px" height="90px" viewBox="252.64 375.945 90 90" enable-background="new 252.64 375.945 90 90" xml:space="preserve">
<title>Ресурс 9</title>
<g id="Слой_2">
	<g id="Layer_1">
		<path fill="#42ADDF" d="M312.72,429.288c3.27-5.5,16.153-26.385,22.966-25.791c8.969,0.768,6.664,14.518,6.664,14.543
			l-5.128-0.842c0,0,1.363-8.225-2.007-8.498c-4.484-0.396-18.73,24.403-18.755,24.478l0,0c0,0-0.421,14.865-4.806,18.507
			c-2.155,1.784-5.996,1.784-9.91,0.818c-4.32-1.003-8.392-2.874-11.966-5.5c-3.345-2.824-3.914-9.91-4.311-14.865
			c-0.173-2.18-0.297-3.89-0.347-3.939v-0.124l-3.493-0.966l-0.372,0.372c0,0,0-0.273,0-0.223s0.223,1.264,0,3.196
			c-0.372,4.955-0.892,12.041-4.534,13.205c-3.79,0.685-7.696,0.29-11.273-1.14c-3.392-1.029-6.374-3.101-8.523-5.921
			c-2.849-4.113-3.766-12.932-4.088-17.541l-0.223-4.385l0.793-0.718l1.041-0.991c6.491-5.896,28.491-25.369,34.685-24.775
			c8.572,0.793,7.16,14.369,7.16,14.394l-5.203-0.495c0,0,0.867-8.399-2.478-8.696s-20.315,14.146-28.243,21.282L312.72,429.288
			L312.72,429.288z M312.943,435.828l-24.354-6.788c0,0.818,0.173,1.734,0.248,2.75c0.372,4.41,0.867,10.678,3.097,12.561
			c3.172,2.352,6.788,4.037,10.628,4.955c3.023,0.718,5.797,0.867,6.987-0.124c2.255-1.858,3.097-9.216,3.394-13.255V435.828z
			 M278.036,426.092l-21.653-6.045c0.347,4.459,1.214,11.446,3.246,14.592c1.728,2.167,4.08,3.75,6.739,4.534
			c2.883,1.155,6.023,1.514,9.092,1.041c1.387-0.446,1.809-6.144,2.106-10.182C277.631,428.708,277.789,427.392,278.036,426.092z"/>
	</g>
</g>
</svg>
