<?xml version="1.0" encoding="utf-8"?>
<!-- Generator: Adobe Illustrator 17.0.0, SVG Export Plug-In . SVG Version: 6.00 Build 0)  -->
<!DOCTYPE svg PUBLIC "-//W3C//DTD SVG 1.1//EN" "http://www.w3.org/Graphics/SVG/1.1/DTD/svg11.dtd">
<svg version="1.1" id="Слой_1" xmlns="http://www.w3.org/2000/svg" xmlns:xlink="http://www.w3.org/1999/xlink" x="0px" y="0px"
	 width="90px" height="90px" viewBox="252.64 375.945 90 90" enable-background="new 252.64 375.945 90 90" xml:space="preserve">
<title>Ресурс 5</title>
<g id="Слой_2">
	<g id="Layer_1">
		<path fill="#42ADDF" d="M327.909,400.314c-1.653,1.35-3.471,2.756-4.931,3.912c1.151,1.314,2.201,2.714,3.141,4.188h0.027
			l5.648-2.754C330.644,403.777,329.344,401.989,327.909,400.314z M336.945,419.213c-0.491-2.757-1.276-5.454-2.341-8.044
			l-5.51,2.754c0.73,1.884,1.292,3.829,1.681,5.813l-0.111,0.11L336.945,419.213z M331.297,426.128v0.071
			c0,5.003-1.13,9.942-3.305,14.448l-0.083,0.028l5.51,3.222c2.734-5.514,4.158-11.585,4.159-17.741v-0.689L331.297,426.128z
			 M314.713,428.689v-16.53h-2.562l-11.682,16.53v2.756h11.02v6.089h3.224v-6.089h3.471v-2.756H314.713z M311.572,428.552h-8.017
			l8.017-11.488V428.552z M285.621,434.558c0.364-0.624,0.809-1.199,1.322-1.707c1.158-1.135,2.372-2.21,3.637-3.224
			c1.703-1.391,3.313-2.891,4.821-4.491c0.858-0.92,1.566-1.971,2.094-3.113c0.409-0.959,0.624-1.988,0.634-3.031
			c0.036-1.917-0.745-3.761-2.149-5.069c-1.61-1.411-3.704-2.141-5.841-2.039c-2.098-0.11-4.161,0.568-5.785,1.901
			c-1.538,1.428-2.441,3.412-2.507,5.51l3.224,0.33c-0.072-1.384,0.425-2.738,1.377-3.746c0.971-0.941,2.286-1.439,3.637-1.377
			c1.278-0.049,2.526,0.405,3.471,1.267c0.886,0.81,1.38,1.967,1.35,3.167c-0.067,1.404-0.59,2.749-1.488,3.829
			c-1.616,2.044-3.466,3.893-5.51,5.51c-1.465,1.178-2.837,2.468-4.105,3.857c-0.881,1-1.58,2.147-2.066,3.388
			c-0.274,0.693-0.405,1.433-0.386,2.177h16.805v-3.141H285.621z M324.576,446.047c-1.004,1.341-2.099,2.611-3.278,3.801
			c-5.279,5.285-12.172,8.656-19.586,9.574c-18.36,2.276-35.09-10.764-37.366-29.126c-2.274-18.361,10.766-35.09,29.127-37.366
			v9.918l4.71-2.756l6.942-3.994l6.943-3.912l4.684-2.756l-4.684-2.754l-6.943-3.995l-6.942-3.995l-4.71-2.754v10.661
			c-9.044,0.963-17.483,4.996-23.913,11.426c-15.538,15.534-15.539,40.722-0.004,56.259c15.535,15.536,40.723,15.538,56.259,0.003
			c1.562-1.548,2.99-3.225,4.27-5.014L324.576,446.047z M299.753,386.953l2.26,1.128l2.232,1.296l-2.232,1.294l-2.26,1.268V386.953z
			"/>
	</g>
</g>
</svg>
