<?xml version="1.0" encoding="utf-8"?>
<!-- Generator: Adobe Illustrator 17.0.0, SVG Export Plug-In . SVG Version: 6.00 Build 0)  -->
<!DOCTYPE svg PUBLIC "-//W3C//DTD SVG 1.1//EN" "http://www.w3.org/Graphics/SVG/1.1/DTD/svg11.dtd">
<svg version="1.1" id="Слой_1" xmlns="http://www.w3.org/2000/svg" xmlns:xlink="http://www.w3.org/1999/xlink" x="0px" y="0px"
	 width="90px" height="90px" viewBox="252.64 375.945 90 90" enable-background="new 252.64 375.945 90 90" xml:space="preserve">
<title>Ресурс 1</title>
<g id="Слой_2">
	<g id="Layer_1">
		<path fill="#42ADDF" d="M340.082,424.686c4.564-4.537,3.161-13.726-4.73-13.726h-20.791c0.795-4.389,1.942-11.696,1.893-12.367
			c-0.442-6.527-4.597-14.473-4.767-14.79c-0.762-1.422-4.597-3.327-8.451-2.501c-4.969,1.065-5.496,4.234-5.459,5.118
			c0,0,0.203,8.69,0.239,11.003c-2.386,5.223-11.871,18.45-14.355,19.49c-0.605-0.357-26.955,0-26.955,0
			c-2.215-0.013-4.021,1.771-4.035,3.986c0,0.017,0,0.034,0,0.052v36.274c0.169,1.966,1.813,3.478,3.787,3.481h23.592
			c2.084,0,3.687-0.826,3.687-2.922c0,0,4.764,0.302,7.199,0.302h35.176c13.151,0,11.747-11.681,10.547-13.269
			c2.217-2.42,3.584-6.693,1.709-10.057C339.819,433.221,342.357,429.032,340.082,424.686z M279.228,456.919H256.44v-36.204h22.787
			V456.919z M333.939,424.383l-0.203,0.907c6.049,1.724,2.822,8.705-1.512,9.161l-0.221,0.907c5.813,1.47,3.043,8.671-1.512,9.161
			l-0.221,0.907c4.749,0.777,3.599,8.874-3.584,8.874l-35.799,0.018c-2.516,0-8.299-2.891-8.299-2.891l0.157-29.036
			c2.011-1.267,2.359-2.096,3.744-3.26c2.604-2.229,15.268-19.112,15.268-21.275s-0.221-11.493-0.221-11.493s2.078-2.704,6.76-0.729
			c0,0,3.932,7.389,4.343,13.272c0,0-1.772,12.098-2.722,15.9h24.802C340.817,414.78,339.653,423.488,333.939,424.383z"/>
	</g>
</g>
</svg>
