<?xml version="1.0" encoding="utf-8"?>
<!-- Generator: Adobe Illustrator 17.0.0, SVG Export Plug-In . SVG Version: 6.00 Build 0)  -->
<!DOCTYPE svg PUBLIC "-//W3C//DTD SVG 1.1//EN" "http://www.w3.org/Graphics/SVG/1.1/DTD/svg11.dtd">
<svg version="1.1" id="Слой_1" xmlns="http://www.w3.org/2000/svg" xmlns:xlink="http://www.w3.org/1999/xlink" x="0px" y="0px"
	 width="90px" height="90px" viewBox="252.64 375.945 90 90" enable-background="new 252.64 375.945 90 90" xml:space="preserve">
<title>Ресурс 8</title>
<g id="Слой_2">
	<g id="Layer_1">
		<path fill="#42ADDF" d="M327.591,437.405l-4.188,4.186l2.442,2.444l4.188-4.22L327.591,437.405z M314.585,432.646l0.095,0.127
			l2.442,2.442l4.22-4.186l-2.444-2.444L314.585,432.646z M314.68,441.845l2.442,2.444l4.188-4.188l-2.444-2.442L314.68,441.845z
			 M314.331,450.666l2.442,2.442l4.188-4.22l-2.444-2.442L314.331,450.666z M301.642,404.095c-1.345-1.341-3.165-2.093-5.063-2.093
			h-0.057c-1.898,0-3.719,0.753-5.063,2.093l-10.564,10.596l0.063-0.127c-1.434,1.422-2.216,3.373-2.157,5.392
			c-0.012,1.913,0.742,3.753,2.093,5.108l10.247,10.245c1.347,1.36,3.181,2.126,5.096,2.126h0.011
			c1.921,0.014,3.765-0.754,5.108-2.126l10.532-10.531c1.372-1.344,2.139-3.187,2.125-5.108c0.003-1.918-0.762-3.757-2.125-5.107
			L301.642,404.095z M307.161,419.957l-10.501,10.342c-0.1,0.101-0.237,0.159-0.381,0.159c-0.132-0.006-0.257-0.062-0.348-0.159
			l-10.215-10.247c-0.118-0.089-0.178-0.234-0.159-0.381v-0.023c0-0.127,0.057-0.248,0.159-0.326l10.531-10.531v0.127
			c0.063-0.018,0.127-0.029,0.19-0.029c0.065,0,0.128,0.011,0.19,0.029c0.06-0.03,0.125-0.047,0.19-0.047
			c0.065,0,0.13,0.017,0.19,0.047l10.152,10.277c0.092,0.107,0.148,0.24,0.159,0.381
			C307.32,419.719,307.262,419.855,307.161,419.957z M305.512,441.845l2.442,2.444l4.218-4.188l-2.474-2.442L305.512,441.845z
			 M289.492,399.179l-2.412-2.444l-4.218,4.188l2.442,2.442L289.492,399.179z M274.2,401.272l2.38,2.347l4.218-4.059l-2.442-2.444
			L274.2,401.272z M280.703,390.486l-2.442-2.442l-4.094,4.124l2.318,2.411L280.703,390.486z M277.976,405.936l-4.188,4.186
			l2.444,2.442l4.218-4.186L277.976,405.936z M274.137,401.336l0.063-0.063l-0.063-0.063V401.336z M274.137,392.136l-0.063,0.127
			l0.094-0.095L274.137,392.136z M265.001,401.336l2.442,2.411l4.188-4.186l-2.442-2.444L265.001,401.336z M311.888,414.564
			l-10.247-10.469c-1.345-1.341-3.165-2.093-5.063-2.093h-0.057c-1.898,0-3.719,0.753-5.063,2.093l-10.564,10.596l0.063-0.127
			c-1.434,1.422-2.216,3.373-2.157,5.392c-0.012,1.913,0.742,3.753,2.093,5.108l10.247,10.245c1.347,1.36,3.181,2.126,5.096,2.126
			h0.011c1.921,0.014,3.765-0.754,5.108-2.126l10.532-10.531c1.372-1.344,2.139-3.187,2.125-5.108
			C314.016,417.753,313.252,415.914,311.888,414.564z M307.161,419.957l-10.501,10.342c-0.1,0.101-0.237,0.159-0.381,0.159
			c-0.132-0.006-0.257-0.062-0.348-0.159l-10.215-10.247c-0.118-0.089-0.178-0.234-0.159-0.381v-0.023
			c0-0.127,0.057-0.248,0.159-0.326l10.531-10.531v0.127c0.063-0.018,0.127-0.029,0.19-0.029c0.065,0,0.128,0.011,0.19,0.029
			c0.06-0.03,0.125-0.047,0.19-0.047c0.065,0,0.13,0.017,0.19,0.047l10.152,10.277c0.092,0.107,0.148,0.24,0.159,0.381
			C307.32,419.719,307.262,419.855,307.161,419.957z M278.261,388.043l-4.094,4.124l2.318,2.411l4.218-4.093L278.261,388.043z
			 M274.073,392.263l0.094-0.095l-0.03-0.032L274.073,392.263z M278.356,397.116l-4.156,4.156l2.38,2.347l4.218-4.059
			L278.356,397.116z M274.137,401.336l0.063-0.063l-0.063-0.063V401.336z M287.08,396.735l-4.218,4.188l2.442,2.442l4.188-4.186
			L287.08,396.735z M277.976,405.936l-4.188,4.186l2.444,2.442l4.218-4.186L277.976,405.936z M269.189,397.116l-4.188,4.22
			l2.442,2.411l4.188-4.186L269.189,397.116z M318.898,428.585l-4.313,4.061l0.095,0.127l2.442,2.442l4.22-4.186L318.898,428.585z
			 M318.866,437.659l-4.186,4.186l2.442,2.444l4.188-4.188L318.866,437.659z M327.591,437.405l-4.188,4.186l2.442,2.444l4.188-4.22
			L327.591,437.405z M318.517,446.446l-4.186,4.22l2.442,2.442l4.188-4.22L318.517,446.446z M309.698,437.659l-4.186,4.186
			l2.442,2.444l4.218-4.188L309.698,437.659z M339.36,431.568l-11.61-11.612l11.134-11.039c1.936-1.935,3.021-4.561,3.014-7.297
			c-0.002-1.366-0.274-2.705-0.786-3.946c-0.512-1.239-1.265-2.38-2.228-3.351l-15.1-15.1v0.127
			c-1.913-1.986-4.54-3.127-7.297-3.172h-0.029c-2.725,0-5.34,1.084-7.268,3.014l-11.134,11.134l-11.612-11.61
			c-4.303-4.266-11.24-4.266-15.544,0l-15.131,15.132c-2.132,2.152-3.199,4.962-3.199,7.773c0,2.81,1.067,5.619,3.199,7.771
			l11.642,11.643l-11.134,11.134c-2.007,2.012-3.011,4.647-3.011,7.28c0,2.636,1.004,5.269,3.011,7.282l15.1,15.1
			c4.035,4.017,10.558,4.017,14.593,0l11.039-11.134l11.739,11.483c2.142,2.14,4.95,3.21,7.756,3.21s5.613-1.07,7.756-3.21
			l15.1-15.1c2.14-2.143,3.21-4.95,3.21-7.756S341.5,433.71,339.36,431.568z M312.331,382.365c1.152-1.123,2.646-1.684,4.141-1.684
			c1.493,0,2.988,0.561,4.14,1.684l15.29,14.973c2.282,2.3,2.282,6.012,0,8.312L324.8,416.784h-0.19l-23.412-23.285L312.331,382.365
			z M282.83,458.659c-1.149,1.13-2.645,1.696-4.141,1.696c-1.495,0-2.991-0.565-4.14-1.696l-15.132-15.1
			c-1.081-1.1-1.685-2.581-1.682-4.124v-0.017c0-1.546,0.605-3.032,1.682-4.14l11.134-11.134l23.285,23.412L282.83,458.659z
			 M335.299,443.083l-15.1,15.1c-1.019,0.997-2.341,1.496-3.663,1.496c-1.324,0-2.648-0.499-3.665-1.496l-52.977-52.882
			c-0.955-0.987-1.49-2.306-1.492-3.68v-0.017c0-1.359,0.536-2.664,1.492-3.632l14.909-15.131h0.19
			c1.026-0.991,2.353-1.487,3.68-1.487c1.327,0,2.654,0.496,3.68,1.487l52.945,52.913c1.007,1.014,1.51,2.34,1.51,3.665
			C336.809,440.744,336.306,442.069,335.299,443.083z M323.403,441.591l2.442,2.444l4.188-4.22l-2.442-2.411L323.403,441.591z
			 M314.585,432.646l0.095,0.127l2.442,2.442l4.22-4.186l-2.444-2.444L314.585,432.646z M314.68,441.845l2.442,2.444l4.188-4.188
			l-2.444-2.442L314.68,441.845z M314.331,450.666l2.442,2.442l4.188-4.22l-2.444-2.442L314.331,450.666z M301.642,404.095
			c-1.345-1.341-3.165-2.093-5.063-2.093h-0.057c-1.898,0-3.719,0.753-5.063,2.093l-10.564,10.596l0.063-0.127
			c-1.434,1.422-2.216,3.373-2.157,5.392c-0.012,1.913,0.742,3.753,2.093,5.108l10.247,10.245c1.347,1.36,3.181,2.126,5.096,2.126
			h0.011c1.921,0.014,3.765-0.754,5.108-2.126l10.532-10.531c1.372-1.344,2.139-3.187,2.125-5.108
			c0.003-1.918-0.762-3.757-2.125-5.107L301.642,404.095z M307.161,419.957l-10.501,10.342c-0.1,0.101-0.237,0.159-0.381,0.159
			c-0.132-0.006-0.257-0.062-0.348-0.159l-10.215-10.247c-0.118-0.089-0.178-0.234-0.159-0.381v-0.023
			c0-0.127,0.057-0.248,0.159-0.326l10.531-10.531v0.127c0.063-0.018,0.127-0.029,0.19-0.029c0.065,0,0.128,0.011,0.19,0.029
			c0.06-0.03,0.125-0.047,0.19-0.047c0.065,0,0.13,0.017,0.19,0.047l10.152,10.277c0.092,0.107,0.148,0.24,0.159,0.381
			C307.32,419.719,307.262,419.855,307.161,419.957z M305.512,441.845l2.442,2.444l4.218-4.188l-2.474-2.442L305.512,441.845z
			 M289.492,399.179l-2.412-2.444l-4.218,4.188l2.442,2.442L289.492,399.179z M274.2,401.272l2.38,2.347l4.218-4.059l-2.442-2.444
			L274.2,401.272z M280.703,390.486l-2.442-2.442l-4.094,4.124l2.318,2.411L280.703,390.486z M277.976,405.936l-4.188,4.186
			l2.444,2.442l4.218-4.186L277.976,405.936z M274.137,401.336l0.063-0.063l-0.063-0.063V401.336z M274.137,392.136l-0.063,0.127
			l0.094-0.095L274.137,392.136z M265.001,401.336l2.442,2.411l4.188-4.186l-2.442-2.444L265.001,401.336z"/>
	</g>
</g>
</svg>
