<?xml version="1.0" encoding="utf-8"?>
<!-- Generator: Adobe Illustrator 17.0.0, SVG Export Plug-In . SVG Version: 6.00 Build 0)  -->
<!DOCTYPE svg PUBLIC "-//W3C//DTD SVG 1.1//EN" "http://www.w3.org/Graphics/SVG/1.1/DTD/svg11.dtd">
<svg version="1.1" id="Слой_1" xmlns="http://www.w3.org/2000/svg" xmlns:xlink="http://www.w3.org/1999/xlink" x="0px" y="0px"
	 width="90px" height="90px" viewBox="252.64 375.945 90 90" enable-background="new 252.64 375.945 90 90" xml:space="preserve">
<title>Ресурс 6</title>
<g id="Слой_2">
	<g id="Layer_1">
		<path fill="#42ADDF" d="M293.581,430.528l-4.49,8.179h-9.83l-1.084-1.161l-3.897,3.638l3.509,3.82v9.417h16.101v-13.133
			l4.464-8.179L293.581,430.528z M288.059,440.514l-2.58,4.773h-0.206l-4.361-4.773H288.059z M292.058,452.615H279.44v-5.625
			l2.58,2.838l0.904,0.902h5.78l0.774-1.419l2.58-4.721V452.615z M293.581,403.797l-4.49,8.154h-9.83l-1.084-1.161v-0.103
			l-3.897,3.663l3.407,3.793v9.418h16.203V414.53l4.464-8.154L293.581,403.797z M288.059,413.654l-2.58,4.773h-0.206l-4.361-4.773
			H288.059z M292.058,425.755H279.44v-5.626l2.58,2.839l0.904,0.902h5.78l0.774-1.419l2.58-4.722V425.755z M300.237,414.943v5.445
			h17.417v-5.445H300.237z M300.237,441.701v5.444h17.417v-5.444H300.237z M300.237,441.701v5.444h17.417v-5.444H300.237z
			 M300.237,414.943v5.445h17.417v-5.445H300.237z M293.581,403.797l-4.49,8.154h-9.83l-1.084-1.161v-0.103l-3.897,3.663
			l3.407,3.793v9.418h16.203V414.53l4.464-8.154L293.581,403.797z M288.059,413.654l-2.58,4.773h-0.206l-4.361-4.773H288.059z
			 M292.058,425.755H279.44v-5.626l2.58,2.839l0.904,0.902h5.78l0.774-1.419l2.58-4.722V425.755z M293.581,430.528l-4.49,8.179
			h-9.83l-1.084-1.161l-3.897,3.638l3.509,3.82v9.417h16.101v-13.133l4.464-8.179L293.581,430.528z M288.059,440.514l-2.58,4.773
			h-0.206l-4.361-4.773H288.059z M292.058,452.615H279.44v-5.625l2.58,2.838l0.904,0.902h5.78l0.774-1.419l2.58-4.721V452.615z
			 M293.581,430.528l-4.49,8.179h-9.83l-1.084-1.161l-3.897,3.638l3.509,3.82v9.417h16.101v-13.133l4.464-8.179L293.581,430.528z
			 M288.059,440.514l-2.58,4.773h-0.206l-4.361-4.773H288.059z M292.058,452.615H279.44v-5.625l2.58,2.838l0.904,0.902h5.78
			l0.774-1.419l2.58-4.721V452.615z M293.581,403.797l-4.49,8.154h-9.83l-1.084-1.161v-0.103l-3.897,3.663l3.407,3.793v9.418h16.203
			V414.53l4.464-8.154L293.581,403.797z M288.059,413.654l-2.58,4.773h-0.206l-4.361-4.773H288.059z M292.058,425.755H279.44v-5.626
			l2.58,2.839l0.904,0.902h5.78l0.774-1.419l2.58-4.722V425.755z M300.237,414.943v5.445h17.417v-5.445H300.237z M300.237,441.701
			v5.444h17.417v-5.444H300.237z M300.237,447.144h17.417v-5.444h-17.417V447.144z M300.237,414.943v5.445h17.417v-5.445H300.237z
			 M289.09,411.95h-9.83l-1.084-1.161v-0.103l-3.897,3.663l3.407,3.793v9.418h16.203V414.53l4.464-8.154l-4.773-2.58L289.09,411.95z
			 M288.059,413.654l-2.58,4.773h-0.206l-4.361-4.773H288.059z M292.058,425.755H279.44v-5.626l2.58,2.839l0.904,0.902h5.78
			l0.774-1.419l2.58-4.722V425.755z M289.09,438.708h-9.83l-1.084-1.161l-3.897,3.638l3.509,3.82v9.417h16.101v-13.133l4.464-8.179
			l-4.773-2.58L289.09,438.708z M288.059,440.514l-2.58,4.773h-0.206l-4.361-4.773H288.059z M292.058,452.615H279.44v-5.625
			l2.58,2.838l0.904,0.902h5.78l0.774-1.419l2.58-4.721V452.615z M320.285,388.857h-8.798v-4.825h-2.58l0.928-2.58l0.336-0.955
			l-0.361-0.955l-0.774-1.987l-0.696-1.729h-19.455l-0.67,1.729l-0.672,1.987l-0.361,0.955l0.206,1.006l0.929,2.58h-3.354v4.773
			h-10.115v-0.129c-2.225,0.046-4.341,0.974-5.882,2.58c-1.554,1.554-2.426,3.661-2.425,5.858v60.378
			c-0.001,0.055-0.002,0.11-0.002,0.165c0,2.192,0.871,4.295,2.427,5.847c1.589,1.496,3.701,2.311,5.882,2.27h45.45
			c2.193,0,4.297-0.873,5.845-2.425c1.623-1.518,2.555-3.635,2.58-5.857v-60.404C328.68,392.523,324.903,388.815,320.285,388.857z
			 M290.407,389.528h5.625l-1.291-3.638l-1.651-4.618h11.044l-1.652,4.618l-1.29,3.638h4.98v4.18h-15.765V389.528z M325.085,457.704
			c0,1.229-0.492,2.407-1.368,3.271c-0.871,0.885-2.059,1.387-3.302,1.393h-45.568c-0.621-0.003-1.229-0.13-1.79-0.367
			c-0.561-0.237-1.077-0.584-1.512-1.027c-0.916-0.902-1.413-2.147-1.368-3.431v-60.378c0-2.579,2.09-4.671,4.67-4.671h10.115v6.554
			h26.654v-6.554h8.799c2.579,0,4.67,2.092,4.67,4.671V457.704z M300.237,447.144h17.417v-5.444h-17.417V447.144z M300.237,420.388
			h17.417v-5.445h-17.417V420.388z M289.09,411.95h-9.83l-1.084-1.161v-0.103l-3.897,3.663l3.407,3.793v9.418h16.203V414.53
			l4.464-8.154l-4.773-2.58L289.09,411.95z M288.059,413.654l-2.58,4.773h-0.206l-4.361-4.773H288.059z M292.058,425.755H279.44
			v-5.626l2.58,2.839l0.904,0.902h5.78l0.774-1.419l2.58-4.722V425.755z M289.09,438.708h-9.83l-1.084-1.161l-3.897,3.638
			l3.509,3.82v9.417h16.101v-13.133l4.464-8.179l-4.773-2.58L289.09,438.708z M288.059,440.514l-2.58,4.773h-0.206l-4.361-4.773
			H288.059z M292.058,452.615H279.44v-5.625l2.58,2.838l0.904,0.902h5.78l0.774-1.419l2.58-4.721V452.615z M293.581,430.528
			l-4.49,8.179h-9.83l-1.084-1.161l-3.897,3.638l3.509,3.82v9.417h16.101v-13.133l4.464-8.179L293.581,430.528z M288.059,440.514
			l-2.58,4.773h-0.206l-4.361-4.773H288.059z M292.058,452.615H279.44v-5.625l2.58,2.838l0.904,0.902h5.78l0.774-1.419l2.58-4.721
			V452.615z M293.581,403.797l-4.49,8.154h-9.83l-1.084-1.161v-0.103l-3.897,3.663l3.407,3.793v9.418h16.203V414.53l4.464-8.154
			L293.581,403.797z M288.059,413.654l-2.58,4.773h-0.206l-4.361-4.773H288.059z M292.058,425.755H279.44v-5.626l2.58,2.839
			l0.904,0.902h5.78l0.774-1.419l2.58-4.722V425.755z M300.237,414.943v5.445h17.417v-5.445H300.237z M300.237,441.701v5.444h17.417
			v-5.444H300.237z M300.237,441.701v5.444h17.417v-5.444H300.237z M300.237,414.943v5.445h17.417v-5.445H300.237z M293.581,403.797
			l-4.49,8.154h-9.83l-1.084-1.161v-0.103l-3.897,3.663l3.407,3.793v9.418h16.203V414.53l4.464-8.154L293.581,403.797z
			 M288.059,413.654l-2.58,4.773h-0.206l-4.361-4.773H288.059z M292.058,425.755H279.44v-5.626l2.58,2.839l0.904,0.902h5.78
			l0.774-1.419l2.58-4.722V425.755z M293.581,430.528l-4.49,8.179h-9.83l-1.084-1.161l-3.897,3.638l3.509,3.82v9.417h16.101v-13.133
			l4.464-8.179L293.581,430.528z M288.059,440.514l-2.58,4.773h-0.206l-4.361-4.773H288.059z M292.058,452.615H279.44v-5.625
			l2.58,2.838l0.904,0.902h5.78l0.774-1.419l2.58-4.721V452.615z M300.237,441.701v5.444h17.417v-5.444H300.237z M300.237,414.943
			v5.445h17.417v-5.445H300.237z M293.581,430.528l-4.49,8.179h-9.83l-1.084-1.161l-3.897,3.638l3.509,3.82v9.417h16.101v-13.133
			l4.464-8.179L293.581,430.528z M288.059,440.514l-2.58,4.773h-0.206l-4.361-4.773H288.059z M292.058,452.615H279.44v-5.625
			l2.58,2.838l0.904,0.902h5.78l0.774-1.419l2.58-4.721V452.615z M293.581,403.797l-4.49,8.154h-9.83l-1.084-1.161v-0.103
			l-3.897,3.663l3.407,3.793v9.418h16.203V414.53l4.464-8.154L293.581,403.797z M288.059,413.654l-2.58,4.773h-0.206l-4.361-4.773
			H288.059z M292.058,425.755H279.44v-5.626l2.58,2.839l0.904,0.902h5.78l0.774-1.419l2.58-4.722V425.755z M293.581,430.528
			l-4.49,8.179h-9.83l-1.084-1.161l-3.897,3.638l3.509,3.82v9.417h16.101v-13.133l4.464-8.179L293.581,430.528z M288.059,440.514
			l-2.58,4.773h-0.206l-4.361-4.773H288.059z M292.058,452.615H279.44v-5.625l2.58,2.838l0.904,0.902h5.78l0.774-1.419l2.58-4.721
			V452.615z M293.581,403.797l-4.49,8.154h-9.83l-1.084-1.161v-0.103l-3.897,3.663l3.407,3.793v9.418h16.203V414.53l4.464-8.154
			L293.581,403.797z M288.059,413.654l-2.58,4.773h-0.206l-4.361-4.773H288.059z M292.058,425.755H279.44v-5.626l2.58,2.839
			l0.904,0.902h5.78l0.774-1.419l2.58-4.722V425.755z M300.237,414.943v5.445h17.417v-5.445H300.237z M300.237,441.701v5.444h17.417
			v-5.444H300.237z"/>
	</g>
</g>
</svg>
