<svg xmlns="http://www.w3.org/2000/svg" viewBox="0 0 1147.3 318" enable-background="new 0 0 1147.3 318"><defs><linearGradient id="0" gradientUnits="userSpaceOnUse" x1="-7.06" y1="148.56" x2="107.29" y2="168.72"><stop stop-color="#ff1049"/><stop offset=".479" stop-color="#fd1048"/><stop offset=".655" stop-color="#f60f46"/><stop offset=".781" stop-color="#ea0f41"/><stop offset=".883" stop-color="#d90e3b"/><stop offset=".97" stop-color="#c40d33"/><stop offset="1" stop-color="#ba0c2f"/></linearGradient></defs><path d="m217.2 107.1v1.4h83.5v100.2h-100.2v100.3h-100.3v-100.2h-100.2v-100.3h100.2v-100.2h100.2 100.2c.1 49.7-36 90.9-83.4 98.8m220.8 26.4v-38.9h51.2v-31h-51.2v-23.6h61v-31.7h-96.5v125.2h35.5m190.1 0l-28-38c15.1-7.6 22.7-21 22.7-40.3 0-15.1-4.8-26.7-14.3-34.8-9.6-8.1-23.4-12.1-41.4-12.1h-52.4v125.2h35.5v-31.3h13.9l20.6 31.3h43.4m-63-95.5c7.4 0 12.6 1.6 15.7 4.7 3 3.2 4.6 8.1 4.6 14.8 0 4.7-1.6 8.6-4.8 11.7-3.2 3.1-8.4 4.7-15.4 4.7h-14.9v-35.9h14.8m175.9 95.5v-30.4h-65v-18h53.1v-28.3h-53.1v-18.1h63.1v-30.4h-97.4v125.2h99.3m102.2-62.6l-64.9-62.6h-17.9v125.2h35.2v-62.8l64.5 62.8h18.3v-125.2h-35.2v62.6m176.9 41.5l-27.8-22.7c-2.6 4.2-6.2 7.6-10.9 10.1-4.7 2.5-10 3.8-15.8 3.8-9.7 0-17.4-2.9-23-8.7-5.6-5.8-8.4-13.9-8.4-24.2 0-10.1 2.8-18 8.4-23.7 5.6-5.7 13.3-8.6 23-8.6 5.7 0 11 1.3 15.7 3.9 4.7 2.6 8.4 6 11.1 10.2l27.8-22.7c-6.2-7.5-14.2-13.4-23.9-17.7-9.7-4.3-20.4-6.4-32-6.4-20.6 0-37 5.8-49.2 17.4-12.2 11.6-18.3 27.5-18.3 47.7 0 20.2 6.1 36.1 18.3 47.9 12.2 11.8 28.6 17.7 49.2 17.7 23.9-.1 42.6-8 55.8-24m48.6 21.1v-46.7h43.1v46.7h35.5v-125.2h-35.5v46.9h-43.1v-46.9h-35.5v125.2h35.5m-546 154.4l-27.8-22.7c-2.6 4.2-6.2 7.6-10.9 10.1-4.7 2.5-10 3.8-15.8 3.8-9.7 0-17.4-2.9-23-8.7-5.6-5.8-8.4-13.9-8.4-24.2 0-10.1 2.8-18 8.4-23.7 5.6-5.7 13.3-8.6 23-8.6 5.7 0 11 1.3 15.7 3.9 4.7 2.6 8.4 6 11.1 10.2l27.8-22.7c-6.2-7.5-14.2-13.4-23.9-17.7-9.7-4.3-20.4-6.4-32-6.4-20.6 0-37 5.8-49.2 17.4-12.2 11.6-18.3 27.5-18.3 47.7 0 20.2 6.1 36.1 18.3 47.9 12.2 11.8 28.6 17.7 49.2 17.7 23.9-.1 42.6-8.1 55.8-24m106.8 21.1v-32.4h-57.3v-92.9h-36.4v125.3h93.7m49.7 0v-125.2h-36.4v125.2h36.4m107-62.6l-64.9-62.6h-17.9v125.2h35.2v-62.8l64.4 62.8h18.3v-125.2h-35.2v62.6zm95.6 62.6v-125.2h-36.4v125.2h36.4m142.9-21.1l-27.8-22.7c-2.6 4.2-6.2 7.6-10.9 10.1-4.7 2.5-10 3.8-15.8 3.8-9.7 0-17.4-2.9-23-8.7-5.6-5.8-8.4-13.9-8.4-24.2 0-10.1 2.8-18 8.4-23.7 5.6-5.7 13.3-8.6 23-8.6 5.7 0 11 1.3 15.7 3.9 4.7 2.6 8.4 6 11.1 10.2l27.8-22.7c-6.2-7.5-14.2-13.4-23.9-17.7-9.7-4.3-20.4-6.4-32-6.4-20.6 0-37 5.8-49.2 17.4-12.2 11.6-18.3 27.5-18.3 47.7 0 20.2 6.1 36.1 18.3 47.9 12.2 11.8 28.6 17.7 49.2 17.7 23.9-.1 42.6-8.1 55.8-24" fill="#ff1049"/><path fill="url(#0)" d="m0 108.5h100.2v100.2h-100.2z"/></svg>