<?xml version="1.0" encoding="iso-8859-1"?>
<!-- Generator: Adobe Illustrator 19.0.0, SVG Export Plug-In . SVG Version: 6.00 Build 0)  -->
<svg xmlns="http://www.w3.org/2000/svg" xmlns:xlink="http://www.w3.org/1999/xlink" version="1.1" id="Capa_1" x="0px" y="0px" viewBox="0 0 511.999 511.999" style="enable-background:new 0 0 511.999 511.999;" xml:space="preserve" width="512px" height="512px">
<g>
	<g>
		<path d="M109.663,300.058c-4.142,0-7.5,3.358-7.5,7.5v9.518c-4.132,0.012-7.479,3.365-7.479,7.5c0,4.142,3.357,7.5,7.5,7.5h7.479    c4.142,0,7.5-3.358,7.5-7.5v-17.018C117.163,303.416,113.806,300.058,109.663,300.058z" fill="#37b6f0"/>
	</g>
</g>
<g>
	<g>
		<path d="M74.072,295.212c-4.142,0-7.5,3.358-7.5,7.5v10.45c0,4.142,3.358,7.5,7.5,7.5c4.142,0,7.5-3.358,7.5-7.5v-10.45    C81.572,298.57,78.215,295.212,74.072,295.212z" fill="#37b6f0"/>
	</g>
</g>
<g>
	<g>
		<path d="M131.887,340.393c-2.929-2.929-7.678-2.929-10.606,0.001c-3.833,3.834-8.925,5.945-14.337,5.945    c-5.413,0-10.505-2.112-14.339-5.946c-2.929-2.929-7.678-2.929-10.607,0c-2.928,2.93-2.928,7.679,0.001,10.608    c6.667,6.668,15.526,10.339,24.945,10.339c9.419,0,18.277-3.672,24.944-10.34C134.817,348.071,134.815,343.322,131.887,340.393z" fill="#37b6f0"/>
	</g>
</g>
<g>
	<g>
		<path d="M474.401,244.845h4.08c16.974,0,30.782-13.81,30.782-30.786c0-16.975-13.809-30.785-30.782-30.785h-0.357    c0.056-0.87,0.096-58.006,0.096-58.006c0-25.084-20.407-45.492-45.491-45.492h-20.016c-9.108-6.554-20.267-10.429-32.319-10.429    h-24.968c-30.592,0-55.48,24.888-55.48,55.479v44.758c-7.572-7.347-16.237-13.302-25.69-17.484    c3.306-6.154,5.213-13.313,5.213-20.958c0-6.245-5.08-11.326-11.324-11.326h-52.958c-6.244,0-11.324,5.081-11.324,11.326    c0,7.645,1.907,14.805,5.213,20.958c-21.597,9.555-39.116,28.313-48.745,51.966c-13.795-10.761-32.316-16.455-53.623-16.455    c-21.542,0-40.245,5.81-54.086,16.802c-15.247,12.109-23.307,29.584-23.307,50.535v23.931    c-14.731,0.454-26.578,12.572-26.578,27.414c0,15.128,12.306,27.435,27.432,27.435h3.554c4.839,14.38,13.405,27.064,24.41,36.654    c-13.071,3.926-22.624,16.063-22.624,30.395v98.876c0,6.808,5.54,12.346,12.349,12.346h438.776    c6.887,0,12.489-5.603,12.489-12.489V314.926c0-12.388-10.078-22.466-22.467-22.466h-33.252    C457.885,280.403,468.927,263.775,474.401,244.845z M478.22,217.965v-19.689h0.262c8.702-0.001,15.782,7.08,15.782,15.784    s-7.08,15.786-15.782,15.786h-0.994C477.97,225.946,478.22,221.98,478.22,217.965z M17.736,306.294    c0-6.569,5.122-11.951,11.578-12.392v13.063c0,3.985,0.295,7.912,0.842,11.764C23.307,318.722,17.736,313.147,17.736,306.294z     M432.729,94.777c16.813,0,30.491,13.679,30.491,30.492v17.881c-3.372-4.308-7.288-8.255-11.748-11.797    c-4.75-3.772-10.011-7.002-15.698-9.695c-0.561-9.866-3.712-19.047-8.781-26.881H432.729z M314.945,124.827    c0-22.32,18.159-40.479,40.48-40.479h24.968c19.233,0,35.366,13.486,39.463,31.498c-9.484-2.54-19.808-3.845-30.775-3.845    c-24.874,0-46.447,6.692-62.389,19.352c-4.465,3.546-8.374,7.505-11.747,11.819V124.827z M264.249,134.817    c-0.558,4.634-2.159,8.882-4.512,12.426c-5.839-1.355-11.882-2.074-18.072-2.074s-12.233,0.719-18.073,2.074    c-2.353-3.544-3.955-7.792-4.512-12.426H264.249z M156.525,248.514c0-4.136,3.364-7.5,7.5-7.5h33.975c4.142,0,7.5-3.358,7.5-7.5    c0-4.142-3.358-7.5-7.5-7.5h-28.735c7.815-37.715,37.302-65.845,72.4-65.845c35.097,0,64.584,28.129,72.397,65.845h-79.062    c-4.142,0-7.5,3.358-7.5,7.5c0,4.142,3.358,7.5,7.5,7.5h84.304c4.136,0,7.5,3.364,7.5,7.5v3.885c0,4.136-3.364,7.5-7.5,7.5    H164.025c-4.136,0-7.5-3.364-7.5-7.5V248.514z M330.874,290.532c0,5.206-3.22,9.668-7.772,11.518    c0.977-5.297,1.496-10.742,1.496-16.29v-6.016C328.341,281.89,330.874,285.917,330.874,290.532z M241.664,358.864    c-36.824,0-67.934-33.478-67.934-73.104v-10.861h135.866v10.861C309.598,325.387,278.488,358.864,241.664,358.864z     M258.142,372.024l-16.476,32.403l-16.478-32.403c5.344,1.198,10.854,1.84,16.477,1.84    C247.288,373.864,252.798,373.221,258.142,372.024z M188.541,352.792c-7.814,0.039-15.196,1.928-21.74,5.243    c4.103-5.395,7.593-11.323,10.336-17.659C180.556,344.89,184.382,349.044,188.541,352.792z M158.731,279.743v6.018    c0,5.548,0.519,10.995,1.495,16.291c-4.55-1.849-7.771-6.312-7.771-11.52C152.455,285.916,154.989,281.888,158.731,279.743z     M106.707,202.612c17.221,0,36.157,4.92,48.598,17.14c-0.694,2.903-1.284,5.854-1.748,8.854c-0.557,0.294-1.095,0.619-1.624,0.957    c-12.026-5.757-27.212-8.788-45.227-8.788c-26.684,0-47.177,6.635-60.358,18.958C53.979,212.665,82.09,202.612,106.707,202.612z     M44.314,306.964v-24.462c0-38.62,33.929-46.727,62.393-46.727c11.97,0,24.895,1.45,35.866,5.987    c-0.673,2.133-1.048,4.398-1.048,6.751v3.885c0,6.356,2.654,12.102,6.906,16.197c-6.66,5.011-10.976,12.979-10.976,21.936    c0,1.685,0.161,3.333,0.453,4.935c-3.217,0.845-5.593,3.764-5.593,7.246v10.45c0,4.142,3.358,7.5,7.5,7.5    c4.142,0,7.5-3.358,7.5-7.5v-1.583c4.717,3.944,10.774,6.337,17.379,6.383c0.729,1.905,1.525,3.776,2.374,5.617    c-7.071,28.692-31.847,50.569-60.363,50.569C72.887,374.148,44.314,343.382,44.314,306.964z M117.963,388.221    c-1.103,5.072-5.622,8.883-11.019,8.883c-5.37,0-9.867-3.773-11-8.806c3.527,0.548,7.117,0.85,10.761,0.85    C110.522,389.148,114.278,388.821,117.963,388.221z M50.507,418.794c0-3.749,3.05-6.798,6.799-6.798    c3.747,0,6.796,3.049,6.796,6.798v27.776c0,5.262,4.281,9.542,9.543,9.542h56.654v13.595H73.645    c-12.758,0-23.138-10.379-23.138-23.137V418.794z M139.945,497H50.508v-20.142c6.422,4.917,14.442,7.849,23.138,7.849h57.845    c1.567,4.179,4.583,7.653,8.453,9.772V497z M139.944,401.628v22.829c-5.741,3.143-9.645,9.25-9.645,16.256v0.399H79.103v-22.318    c0-12.02-9.778-21.798-21.796-21.798c-2.281,0-4.481,0.354-6.549,1.006c1.329-7.908,8.206-13.958,16.487-13.958h13.114    c0.101,0.04,0.203,0.075,0.304,0.115v1.664c0,14.492,11.79,26.282,26.282,26.282s26.281-11.79,26.281-26.282v-1.779h5.751    c1.399,0,2.754,0.185,4.052,0.512C141.038,389.873,139.944,395.624,139.944,401.628z M145.299,478.226v-37.514    c0-1.936,1.556-3.511,3.476-3.511l8.934-0.003c1.917,0.001,3.476,1.577,3.476,3.514c0,1.225-0.628,2.344-1.681,2.992    c-2.216,1.366-3.566,3.782-3.566,6.385c0.001,2.603,1.35,5.019,3.566,6.385c1.053,0.649,1.682,1.768,1.682,2.993    c0,1.227-0.626,2.343-1.675,2.988c-2.218,1.364-3.57,3.78-3.572,6.384s1.347,5.022,3.563,6.389    c1.054,0.65,1.684,1.771,1.684,2.998c0,1.936-1.558,3.511-3.473,3.511h-8.938C146.859,481.737,145.299,480.161,145.299,478.226z     M328.386,422.418h-0.001c-2.742,1.237-5.156,3.077-7.055,5.367c-0.451-0.061-0.908-0.1-1.375-0.1h-10.078v-10.067    c0-5.719-4.653-10.372-10.372-10.372H284.63c-5.721,0-10.375,4.653-10.375,10.372v10.067h-10.076    c-5.72,0-10.373,4.652-10.373,10.37v14.865c0,5.719,4.653,10.372,10.373,10.372h10.076v10.065c0,5.719,4.654,10.372,10.375,10.372    h14.875c5.719,0,10.372-4.653,10.372-10.372v-10.065h7.086c0.341,2.858,1.286,5.564,2.767,7.955    c-1.883,3.04-2.915,6.588-2.915,10.318c0.001,6.265,2.962,11.841,7.542,15.434H154.944v-0.263h2.77    c10.186,0,18.473-8.304,18.473-18.511c0-3.373-0.895-6.59-2.534-9.378c1.639-2.788,2.534-6.005,2.534-9.38    c0-3.373-0.895-6.589-2.535-9.377c1.639-2.788,2.535-6.005,2.535-9.378c0-10.204-8.285-18.509-18.475-18.514l-2.767,0.001v-20.573    c0-18.661,15.181-33.842,33.842-33.842h17.419l24.243,47.676c2.513,4.942,6.602,7.777,11.218,7.777    c4.616,0,8.705-2.835,11.218-7.778l24.241-47.675h17.419c18.66,0,33.841,15.181,33.841,33.842V422.418z M281.755,448.293h-12.949    v-5.607h12.949c4.143,0,7.5-3.358,7.5-7.5v-12.938h5.622v12.938c0,4.142,3.357,7.5,7.5,7.5h12.951v5.607h-12.951    c-4.143,0-7.5,3.358-7.5,7.5v12.936h-5.622v-12.936C289.255,451.65,285.897,448.293,281.755,448.293z M346.215,486.174    l-9.828,0.004c-2.522-0.002-4.572-2.072-4.572-4.613c0-1.611,0.824-3.081,2.204-3.931c2.215-1.365,3.564-3.781,3.565-6.383    c0.001-2.602-1.347-5.019-3.561-6.385c-1.383-0.853-2.209-2.324-2.209-3.931c0-1.613,0.824-3.083,2.203-3.933    c2.217-1.365,3.566-3.781,3.567-6.384c0.001-2.603-1.348-5.02-3.564-6.386c-1.381-0.852-2.206-2.323-2.206-3.934    c0-2.543,2.05-4.611,4.569-4.611h9.832c2.521,0.001,4.573,2.069,4.573,4.611v41.267h0.001    C350.789,484.107,348.741,486.174,346.215,486.174z M484.122,497H358.25c2.657-2.085,4.769-4.832,6.07-8.003h88.528    c12.048,0,23.032-4.632,31.274-12.204V497z M476.658,307.46c4.115,0,7.465,3.35,7.465,7.466v10.628    c-3.587-1.776-7.621-2.779-11.887-2.779c-14.826,0-26.888,12.061-26.888,26.888l0.005,32.338c0.001,4.142,3.359,7.5,7.501,7.499    c4.143,0,7.5-3.359,7.499-7.501l-0.005-32.337c0-6.554,5.333-11.887,11.888-11.887s11.887,5.332,11.887,11.887v93.06    c0,17.245-14.029,31.275-31.274,31.275H365.79v-23.775h87.052c3.222,0,5.995-2.039,7.049-4.933    c0.313-0.838,0.474-1.727,0.474-2.625l-0.006-24.666c-0.001-4.142-3.358-7.498-7.5-7.498c-0.001,0-0.001,0-0.002,0    c-4.142,0.001-7.499,3.36-7.498,7.502l0.004,17.22h-80.261c-2.241-8.354-9.845-14.533-18.883-14.535h-2.833v-19.06    c0-26.85-21.778-48.703-48.597-48.836c10.388-9.361,18.676-21.319,23.846-34.83c8.663-0.062,16.378-4.162,21.368-10.501h19.218    v8.189c0,16.784,13.655,30.439,30.441,30.439c16.783,0,30.436-13.655,30.436-30.439v-8.189H476.658z M374.219,315.649v-4.346h0    c4.848,0.907,9.812,1.396,14.861,1.396c5.45,0,10.804-0.557,16.016-1.61v4.56c0,8.513-6.925,15.439-15.436,15.439    C381.146,331.088,374.219,324.162,374.219,315.649z M389.081,297.698c-16.757,0-32.421-6.357-44.995-16.898    c-1.861-4.886-5.076-9.11-9.189-12.204c4.253-4.096,6.907-9.841,6.907-16.198v-3.885c0-8.629-4.886-16.135-12.033-19.908    c-0.803-5.196-1.968-10.253-3.45-15.145c0.283,0.437,0.612,0.851,0.995,1.233c5.467,5.467,12.649,8.201,19.831,8.201    s14.364-2.734,19.831-8.201c2.93-2.929,2.93-7.677,0.001-10.606c-2.929-2.929-7.678-2.929-10.606-0.001    c-5.088,5.087-13.363,5.087-18.451,0c-2.928-2.929-7.677-2.928-10.606,0.001c-1.56,1.56-2.28,3.636-2.179,5.678    c-2.622-7.655-6.058-14.856-10.176-21.481c0.64-45.202,40.199-61.283,74.121-61.283c34.2,0,74.139,16.34,74.139,62.393v28.57    h-0.001C463.22,261.185,429.269,297.698,389.081,297.698z" fill="#37b6f0"/>
	</g>
</g>
<g>
	<g>
		<path d="M417.052,257.974c-2.929-2.928-7.678-2.929-10.607,0c-9.729,9.725-25.553,9.725-35.279,0.001    c-2.928-2.93-7.677-2.929-10.606,0c-2.929,2.929-2.929,7.678,0.001,10.606c7.787,7.788,18.015,11.68,28.245,11.68    c10.228,0,20.459-3.894,28.245-11.68C419.981,265.652,419.981,260.903,417.052,257.974z" fill="#37b6f0"/>
	</g>
</g>
<g>
	<g>
		<path d="M445.275,204.088c-2.928-2.928-7.677-2.93-10.606-0.001c-5.088,5.086-13.363,5.086-18.451,0    c-2.93-2.929-7.679-2.929-10.607,0.001c-2.929,2.929-2.929,7.678,0.001,10.606c5.468,5.466,12.649,8.2,19.831,8.2    s14.363-2.733,19.831-8.2C448.204,211.765,448.204,207.017,445.275,204.088z" fill="#37b6f0"/>
	</g>
</g>
<g>
	<g>
		<path d="M396.055,228.325h-2.261v-12.994c0-4.142-3.357-7.5-7.5-7.5s-7.5,3.358-7.5,7.5v15.494c0,6.892,5.554,12.5,12.38,12.5    h4.881c4.143,0,7.5-3.358,7.5-7.5C403.555,231.683,400.198,228.325,396.055,228.325z" fill="#37b6f0"/>
	</g>
</g>
<g>
	<g>
		<path d="M221.783,283.315c-2.929-2.929-7.678-2.929-10.607,0c-2.187,2.186-5.09,3.391-8.176,3.391    c-3.085,0-5.988-1.204-8.174-3.39c-2.929-2.929-7.677-2.93-10.606-0.001c-2.929,2.929-2.93,7.678-0.001,10.606    c5.02,5.02,11.689,7.785,18.782,7.785s13.763-2.764,18.782-7.784C224.713,290.992,224.713,286.243,221.783,283.315z" fill="#37b6f0"/>
	</g>
</g>
<g>
	<g>
		<path d="M294.424,283.314c-2.928-2.928-7.677-2.93-10.606,0c-4.51,4.509-11.845,4.507-16.351,0.001    c-2.93-2.929-7.679-2.929-10.607,0c-2.929,2.929-2.929,7.678,0,10.606c5.178,5.179,11.979,7.767,18.782,7.767    c6.801,0,13.604-2.589,18.781-7.767C297.353,290.992,297.353,286.243,294.424,283.314z" fill="#37b6f0"/>
	</g>
</g>
<g>
	<g>
		<path d="M248.376,305.642h-1.556v-11.514c0-4.142-3.358-7.5-7.5-7.5c-4.142,0-7.5,3.358-7.5,7.5v14.014    c0,6.893,5.396,12.5,12.028,12.5h4.528c4.142,0,7.5-3.358,7.5-7.5C255.876,309,252.518,305.642,248.376,305.642z" fill="#37b6f0"/>
	</g>
</g>
<g>
	<g>
		<path d="M268.91,327.835c-2.929-2.928-7.678-2.927-10.607,0.001c-4.449,4.449-10.358,6.899-16.639,6.899s-12.19-2.45-16.638-6.899    c-2.93-2.93-7.678-2.929-10.606-0.001c-2.929,2.929-2.93,7.678-0.001,10.607c7.282,7.283,16.958,11.293,27.246,11.293    c10.288,0,19.964-4.011,27.246-11.293C271.84,335.513,271.84,330.764,268.91,327.835z" fill="#37b6f0"/>
	</g>
</g>
<g>
	<g>
		<path d="M208.143,33.662c-7.596-7.561-17.695-11.724-28.436-11.724c-10.745,0-20.843,4.164-28.429,11.722l-4.482,4.457    l-4.479-4.455c-7.597-7.56-17.696-11.724-28.435-11.724c-10.74,0-20.838,4.164-28.436,11.724    c-7.599,7.561-11.783,17.627-11.783,28.343c0,10.719,4.185,20.786,11.783,28.347l51.213,50.958    c2.66,2.645,6.192,4.101,9.945,4.101c3.739,0,7.26-1.446,9.912-4.069l21.755-21.489c2.947-2.911,2.976-7.66,0.065-10.606    c-2.91-2.946-7.659-2.977-10.606-0.065l-21.124,20.866L96.023,79.72c-4.748-4.725-7.363-11.016-7.363-17.714    c0-6.696,2.615-12.985,7.364-17.711c4.767-4.744,11.108-7.356,17.855-7.356s13.088,2.612,17.856,7.357l9.768,9.717    c2.925,2.911,7.652,2.91,10.578,0.001l9.776-9.722c4.76-4.742,11.099-7.353,17.848-7.353c6.747,0,13.089,2.612,17.855,7.356    c4.758,4.735,7.378,11.025,7.378,17.711c0,6.687-2.622,12.978-7.362,17.695l-4.846,4.787c-2.947,2.911-2.976,7.66-0.065,10.606    c2.911,2.946,7.659,2.976,10.606,0.065l4.866-4.806c7.61-7.572,11.802-17.64,11.802-28.348    C219.94,51.299,215.751,41.234,208.143,33.662z" fill="#37b6f0"/>
	</g>
</g>
<g>
	<g>
		<path d="M316.05,31.741c-18.488-4.327-19.608-5.44-23.954-23.821C290.994,3.257,286.872,0,282.073,0    c-4.803,0-8.925,3.259-10.025,7.922c-4.345,18.379-5.465,19.492-23.953,23.819c-4.681,1.095-7.95,5.214-7.95,10.016    c-0.001,4.803,3.27,8.921,7.95,10.015c18.489,4.327,19.608,5.44,23.952,23.815c1.101,4.667,5.224,7.927,10.026,7.927    c4.799,0,8.922-3.257,10.025-7.923c4.345-18.379,5.464-19.492,23.951-23.818C320.731,50.678,324,46.56,324,41.757    C324,36.956,320.73,32.838,316.05,31.741z M282.073,57.248c-3.332-7.725-7.775-12.167-15.507-15.492    c7.731-3.325,12.175-7.767,15.507-15.493c3.332,7.725,7.776,12.168,15.506,15.493C289.849,45.081,285.405,49.523,282.073,57.248z" fill="#37b6f0"/>
	</g>
</g>
<g>
	<g>
		<path d="M81.661,123.716c-18.489-4.328-19.608-5.44-23.953-23.816c-1.101-4.666-5.224-7.925-10.026-7.925    c-4.8,0-8.923,3.258-10.025,7.922c-4.345,18.378-5.464,19.492-23.951,23.819c-4.682,1.094-7.952,5.212-7.952,10.016    c0.001,4.803,3.271,8.921,7.95,10.015c18.49,4.328,19.609,5.441,23.954,23.819c1.103,4.665,5.225,7.923,10.025,7.923    c4.802,0,8.924-3.259,10.025-7.923c4.345-18.379,5.464-19.492,23.95-23.819c4.683-1.094,7.953-5.212,7.953-10.016    C89.611,128.928,86.34,124.809,81.661,123.716z M47.684,149.224c-3.332-7.725-7.776-12.167-15.507-15.492    c7.731-3.325,12.174-7.766,15.506-15.492c3.333,7.725,7.776,12.167,15.507,15.492C55.458,137.057,51.015,141.499,47.684,149.224z" fill="#37b6f0"/>
	</g>
</g>
<g>
</g>
<g>
</g>
<g>
</g>
<g>
</g>
<g>
</g>
<g>
</g>
<g>
</g>
<g>
</g>
<g>
</g>
<g>
</g>
<g>
</g>
<g>
</g>
<g>
</g>
<g>
</g>
<g>
</g>
</svg>
