<?xml version="1.0" encoding="iso-8859-1"?>
<!-- Generator: Adobe Illustrator 19.0.0, SVG Export Plug-In . SVG Version: 6.00 Build 0)  -->
<svg xmlns="http://www.w3.org/2000/svg" xmlns:xlink="http://www.w3.org/1999/xlink" version="1.1" id="Capa_1" x="0px" y="0px" viewBox="0 0 498.1 498.1" style="enable-background:new 0 0 498.1 498.1;" xml:space="preserve" width="512px" height="512px">
<g>
	<g>
		<path d="M194.9,462.498h-8.5c-4.4,0-8,3.6-8,8c0,4.4,3.6,8,8,8h8.5c4.4,0,8-3.6,8-8C202.9,466.098,199.3,462.498,194.9,462.498z" fill="#37b6f0"/>
	</g>
</g>
<g>
	<g>
		<path d="M241.6,373.498H201v-13.6c17.5-8.1,32.6-20.5,43.8-36.2c11.3-16,17.9-34.8,19.2-54.4c15.1-2.7,25.1-17.2,22.4-32.3    c-1-5.6-3.8-10.8-7.8-14.9c-3.9-4.1-9-6.8-14.6-7.7v-44h16.1c4.5-0.1,8-3.7,8-8.2c0-41.7-33.9-75.8-75.6-75.8h-69.6    c-11.1,0-21.7,4.4-29.6,12.3c-2.1,2.1-4,4.5-5.6,7c-25.7,1.4-40.1,15.7-47.8,27.8c-5.3,8.5-9,17.9-10.7,27.7    c-0.1,0.4-0.2,0.7-0.2,1.1v52.2c-5.4,1.1-10.4,3.8-14.3,7.7c-5.2,5.2-8.1,12.3-8.1,19.7c0,13.5,9.7,25,22.9,27.4    c1.8,25.9,12.9,50.2,31.3,68.4c10.2,10.4,22.6,18.6,36.2,23.8v12H76.1c-41.8,0-76.1,34-76.1,75.9v31.3c0,4.4,3.6,8,8,8s8-3.6,8-8    v-31.3c0.1-31.5,24.5-57.6,56-59.8v10.2c-17.6,3.9-30.1,19.5-30,37.5v42.6c0.1,4.6,3.7,8.3,8.2,8.5h12.2c4.4,0,8-3.6,8-8    c0-4.4-3.6-8-8-8H58v-35.1c0-6,2.4-11.8,6.7-16.1c4.1-4.1,9.8-5.8,15.7-6.8h0.3c12.4,0,22.3,10.5,22.3,22.9v35.2h-7.1    c-4.4,0-8,3.6-8,8c0,4.4,3.6,8,8,8h15.2c4.4,0,7.9-4.1,7.9-8.5v-42.6c0.1-18.4-13-34.2-31-37.7v-10.2h33.5l27.5,29.1v51.9    c0,4.4,3.6,8,8,8c4.4,0,8-3.6,8-8v-51.8l30.8-29.3H235v39.8c-16.7,4.4-26.6,21.4-22.3,38.1s21.4,26.6,38.1,22.3    c16.7-4.4,26.6-21.4,22.3-38.1c-1.4-5.3-4.2-10.2-8-14.1c-3.9-3.9-8.8-6.7-14.1-8.2v-39.2c28,4.3,51,29.2,51,59.2v31.3    c0,4.4,3.6,8,8,8c4.4,0,8-3.6,8-8v-31.3C318,407.498,283.4,373.498,241.6,373.498z M49,252.498c-4-2-6.6-6.1-6.5-10.6    c0-3.1,1.2-6.2,3.4-8.4c0.9-0.9,2-1.6,3.1-2.3V252.498z M267.3,233.498c4.6,4.7,4.6,12.2-0.1,16.8c-0.9,0.9-2,1.7-3.2,2.2v-21.3    C265.2,231.898,266.3,232.598,267.3,233.498z M119.6,117.398c1.3-2.7,3-5.1,5-7.2c4.8-4.9,11.4-7.6,18.2-7.6h69.6    c30.2,0,55.2,23,59.1,52H142.8c-0.3,0-0.5,0-0.8-0.1c-0.3,0-0.5-0.1-0.8-0.1c-13.6-0.9-24.2-12.2-24.2-25.9    C117,124.698,117.9,120.798,119.6,117.398z M65,162.998c1-4.4,7-34.5,36.3-40.2c-0.2,1.9-0.4,3.8-0.3,5.8    c0,16.7,9.9,31.9,25.3,38.5c-23.2,24.5-49.3,27.8-61.3,27.8V162.998z M185,378.098l-27.1,26l-24.9-25.8v-11.8    c7.9,1.8,15.9,2.7,24,2.7c9.4-0.1,18.8-1.3,28-3.7V378.098z M188.7,347.398c-19.6,7.3-41.1,7.7-60.9,1.1    c-13.5-4.5-25.8-12.1-35.9-22.1c-17.3-17.1-27-40.4-26.9-64.7v-50.8c17,0,51.2-4.4,79.7-40.4H248v91.3    C247.9,299.798,224.3,333.898,188.7,347.398z M253.5,448.798c6.1,6,6.1,15.8,0.1,21.8c-6.1,6.1-15.9,6.1-22,0    c-6.1-6.1-6.1-15.9,0-21.9C237.7,442.798,247.5,442.798,253.5,448.798z" fill="#37b6f0"/>
	</g>
</g>
<g>
	<g>
		<path d="M194.9,437.498h-8.5c-4.4,0-8,3.6-8,8c0,4.4,3.6,8,8,8h8.5c4.4,0,8-3.6,8-8C202.9,441.098,199.3,437.498,194.9,437.498z" fill="#37b6f0"/>
	</g>
</g>
<g>
	<g>
		<path d="M131,218.898c-4.4,0-8,3.6-8,8v4.3c0.1,4.9-3.9,8.9-8.7,9h-0.1c-2.3,0-4.6-0.9-6.2-2.6l-0.2-0.1c-1.7-1.6-2.7-3.9-2.7-6.3    v-4.3c0-4.4-3.6-8-8-8c-4.4,0-8,3.6-8,8v4.3c0,6.7,2.7,13,7.5,17.7c4.6,4.7,11,7.4,17.6,7.3c13.8,0,24.9-11.2,24.9-25v-4.3    C139,222.498,135.4,218.898,131,218.898z" fill="#37b6f0"/>
	</g>
</g>
<g>
	<g>
		<path d="M216,218.898c-4.4,0-8,3.6-8,8v4.3c0,4.9-3.9,8.9-8.8,9c-2.4,0-4.6-0.9-6.3-2.6c0,0-0.1-0.1-0.2-0.1    c-1.7-1.6-2.7-3.9-2.7-6.3v-4.3c0-4.4-3.6-8-8-8c-4.4,0-8,3.6-8,8v4.3c0,13.8,11.2,25,25,25s25-11.2,25-25v-4.3    C224,222.498,220.4,218.898,216,218.898z" fill="#37b6f0"/>
	</g>
</g>
<g>
	<g>
		<path d="M462.4,7.498H317.9c-1.5,0-2.8,0-3.8,0c-16.6,0.1-30,13.6-30.1,30.3v80.5c0,13.7,11.2,25.3,25,25.3h19v43.6    c0,13.7,11.3,25.3,25.1,25.3h44.4l0.4,33.4c0.1,4.3,3.6,7.8,8,7.8c1.7,0,3.4-0.6,4.8-1.6l21.2-15.9l21.2,15.9    c2.4,1.8,5.6,2.1,8.3,0.8s4.4-3.9,4.5-6.9l0.3-33.4h6.7c13.9-0.2,25.1-11.5,25.2-25.4v-143.7C498,23.898,481.9,7.498,462.4,7.498z     M328,127.498h-19c-5-0.2-9-4.3-9-9.3v-80.5c-0.1-7.6,6-13.9,13.7-14c0.1,0,0.2,0,0.3,0v-0.2h2.6c2.8,1,5.3,2,7.4,4.1    c2.6,2.7,4.1,6.4,4,10.2V127.498z M450.2,203.998l-0.2,25.7l-13.4-10c-2.8-2.1-6.8-2.1-9.6,0l-13.3,10l-0.3-25.7l-0.2-15.5    c11.8,5.1,25.3,5.1,37.1,0.1L450.2,203.998z M455,165.798c-0.8,1-1.8,1.9-2.8,2.8c-11.7,10.3-29.2,10.3-40.8-0.1l-0.1-0.1    c-12.8-11.4-14-30.9-2.6-43.7c11.4-12.8,30.9-14,43.7-2.6C465.2,133.498,466.4,152.998,455,165.798z M482,187.098    c-0.1,5.1-4.1,9.2-9.2,9.4h-6.5l0.1-19.2c17.6-19.1,16.4-48.8-2.7-66.4c-19.1-17.6-48.8-16.4-66.4,2.7    c-16.5,17.9-16.6,45.4-0.3,63.4l0.3,19.5h-44.2c-5.1-0.2-9.1-4.3-9.1-9.4v-149.4c0-4.9-1.1-9.8-3.2-14.2h121.6    c10.7,0,19.6,9.2,19.6,19.9V187.098z" fill="#37b6f0"/>
	</g>
</g>
<g>
	<g>
		<path d="M457.5,77.498h-90.6c-4.4,0-8,3.6-8,8c0,4.4,3.6,8,8,8h90.6c4.4,0,8-3.6,8-8C465.5,81.098,462,77.498,457.5,77.498z" fill="#37b6f0"/>
	</g>
</g>
<g>
	<g>
		<path d="M406.7,49.498h-39.8c-4.4,0-8,3.6-8,8c0,4.4,3.6,8,8,8h39.8c4.4,0,8-3.6,8-8C414.7,53.098,411.1,49.498,406.7,49.498z" fill="#37b6f0"/>
	</g>
</g>
<g>
</g>
<g>
</g>
<g>
</g>
<g>
</g>
<g>
</g>
<g>
</g>
<g>
</g>
<g>
</g>
<g>
</g>
<g>
</g>
<g>
</g>
<g>
</g>
<g>
</g>
<g>
</g>
<g>
</g>
</svg>
