<?xml version="1.0"?>
<svg xmlns="http://www.w3.org/2000/svg" height="512px" viewBox="-76 -16 512 512" width="512px"><path d="m356 166.699219c0-16.25-5.507812-32.269531-15.460938-45.019531-9.898437-12.832032-24.109374-22.117188-40.121093-26.191407l-54.417969-13.503906v-81.984375h-40v181.929688l-60-15.019532v-56.910156h-40v46.8125l-3.902344-.972656-35.777344-8.882813-5.140624-1.289062c-7.179688-1.757813-13.578126-5.917969-18.109376-11.777344-4.5625-5.828125-7.070312-13.117187-7.070312-20.492187 0-17.417969 13.441406-31.9375 30.707031-33.300782l109.3125-.117187-.039062-40-110 .117187-1.230469.042969c-38.550781 2.40625-68.75 34.589844-68.75 73.257813 0 16.25 5.507812 32.269531 15.460938 45.019531 2.800781 3.632812 6.007812 6.890625 9.425781 9.902343-15.792969 13.921876-24.886719 33.808594-24.886719 54.980469 0 21.640625 9.523438 41.367188 24.953125 54.972657-15.84375 13.929687-24.953125 33.828124-24.953125 55.027343 0 16.25 5.507812 32.269531 15.460938 45.019531 9.898437 12.832032 24.109374 22.117188 40.121093 26.191407l54.417969 13.503906v61.984375h40v-161.890625l60 15v56.890625h40v-46.878906l44.820312 11.210937c7.179688 1.757813 13.578126 5.917969 18.109376 11.777344 4.5625 5.828125 7.070312 13.117187 7.070312 20.492187 0 17.417969-13.441406 31.9375-30.707031 33.300782l-109.3125.117187.039062 40 110-.117187 1.230469-.042969c38.550781-2.40625 68.75-34.589844 68.75-73.257813 0-16.25-5.507812-32.269531-15.460938-45.019531-2.828124-3.660156-6.066406-6.941406-9.53125-9.980469 15.882813-13.941406 24.992188-33.703124 24.992188-55 0-16.25-5.507812-32.269531-15.460938-45.019531-2.800781-3.632812-6.007812-6.890625-9.425781-9.902343 15.792969-13.921876 24.886719-33.808594 24.886719-54.980469zm-250 145.703125v64.410156l-44.679688-11.105469c-7.269531-1.84375-13.726562-6.039062-18.25-11.910156-4.617187-5.925781-7.070312-13.015625-7.070312-20.496094 0-9.949219 4.371094-19.292969 11.992188-25.628906 7.597656-6.324219 17.507812-8.890625 26.988281-7.25l18.539062 4.578125 12.480469 3.109375zm0-110v64.417968l-18.453125-4.617187c-1.070313-.304687-2.046875-.492187-2.855469-.632813l-18.84375-4.710937-4.539062-1.140625c-14.898438-3.78125-25.308594-17.109375-25.308594-32.417969 0-9.949219 4.371094-19.292969 11.992188-25.628906 7.648437-6.375 17.617187-9 27.378906-7.203125l.078125.007812 30.550781 7.652344zm100 25.097656v64.351562l-60-15.019531v-68.691406l60 15.019531zm97.167969 75.410156c-8.148438 6.355469-18.570313 8.570313-28.628907 6.078125l-15.65625-3.902343-12.882812-3.214844v-68.703125l18.070312 4.523437c.878907.257813 1.832032.476563 3.09375.75.027344.011719.054688.011719.09375.019532l19.179688 4.8125.011719-.039063 4.378906 1.097656c7.183594 1.757813 13.578125 5.917969 18.109375 11.777344 4.554688 5.828125 7.0625 13.117187 7.0625 20.492187 0 10.335938-4.679688 19.925782-12.832031 26.308594zm.839843-110.582031c-7.539062 6.289063-17.328124 8.929687-26.96875 7.261719l-18.558593-4.570313-12.480469-3.121093v-68.710938l44.679688 11.105469c7.269531 1.84375 13.726562 6.039062 18.25 11.910156 4.617187 5.925781 7.070312 13.015625 7.070312 20.496094 0 9.949219-4.371094 19.292969-11.992188 25.628906zm0 0" fill="#FFFFFF"/></svg>
