<svg xmlns="http://www.w3.org/2000/svg" enable-background="new 0 0 512 512" viewBox="0 0 512 370"><g fill="#00247d"><path d="m0 113.96h80.04l-80.04-56.04v56.04"/><path d="m66.33 369.96h118.56v-83.02l-118.56 83.02"/><path d="m327.11 286.96v83h118.54l-118.54-83"/><path d="m0 256.18v56.05l80.07-56.05h-80.07"/><path d="m445.72.181h-118.57v83.02l118.57-83.02"/><path d="m431.91 256.18l80.09 56.06v-56.06h-80.09"/><path d="m431.94 113.96h80.06v-56.05l-80.06 56.05"/><path d="m184.89.181h-118.56l118.56 83.02v-83.02"/></g><g fill="#cf1b2b"><path d="m357.55 256.18l138.13 96.72c6.699-6.826 11.491-15.389 14.08-24.875l-102.61-71.851h-49.593z"/><path d="m184.89 256.18h-30.45l-138.11 96.71c7.41 7.538 16.91 12.928 27.563 15.431l141-98.73v-13.411z"/><path d="m327.11 113.96h30.45l138.11-96.71c-7.41-7.538-16.91-12.928-27.549-15.431l-141.01 98.73v13.411"/><path d="m154.44 113.96l-138.11-96.71c-6.699 6.826-11.491 15.389-14.09 24.875l102.61 71.836h49.591"/></g><g fill="#eee"><path d="m512 227.74h-213.33v142.22h28.445v-83l118.54 83h9.457c15.886 0 30.24-6.556 40.561-17.05l-138.13-96.73h49.592l102.61 71.851c1.322-4.793 2.248-9.756 2.248-14.961v-.825l-80.08-56.06h80.09v-28.446"/><path d="m0 227.74v28.445h80.07l-80.07 56.05v.839c0 15.516 6.244 29.554 16.328 39.822l138.11-96.71h30.45v13.411l-141 98.73c4.181.981 8.505 1.635 12.999 1.635h9.444l118.56-83.02v83.01h28.445v-142.22h-213.33"/><path d="m512 57.07c0-15.516-6.244-29.554-16.327-39.822l-138.11 96.71h-30.45v-13.411l141.01-98.73c-4.195-.981-8.519-1.635-13.01-1.635h-9.429l-118.57 83.02v-83.02h-28.445v142.22h213.33v-28.445h-80.06l80.06-56.05v-.839"/><path d="m184.89.181v83.02l-118.56-83.02h-9.444c-15.9 0-30.24 6.556-40.561 17.07l138.11 96.71h-49.594l-102.61-71.836c-1.307 4.793-2.232 9.743-2.232 14.948v.839l80.04 56.05h-80.04v28.445h213.33v-142.22h-28.445"/></g><path d="m298.67 142.4v-142.22h-85.33v142.22h-213.33v42.666 42.666h213.33v142.22h85.33v-142.22h213.33v-42.666-42.666h-213.33" fill="#cf1b2b"/></svg>