<?xml version="1.0" encoding="iso-8859-1"?>
<!-- Generator: Adobe Illustrator 19.0.0, SVG Export Plug-In . SVG Version: 6.00 Build 0)  -->
<svg xmlns="http://www.w3.org/2000/svg" xmlns:xlink="http://www.w3.org/1999/xlink" version="1.1" id="Capa_1" x="0px" y="0px" viewBox="0 0 488.004 488.004" style="enable-background:new 0 0 488.004 488.004;" xml:space="preserve" width="512px" height="512px">
<g>
	<g>
		<path d="M425.802,27.002h-92.8v-19.1c-0.1-4.4-3.8-7.9-8.2-7.9h-161.6c-4.4-0.1-8.1,3.4-8.2,7.9v19.1h-92.8    c-4.4-0.1-8.1,3.4-8.2,7.8v445.3c0.1,4.4,3.8,7.9,8.2,7.9h363.6c4.4,0.1,8.1-3.4,8.2-7.9v-445.3    C433.902,30.402,430.202,26.902,425.802,27.002z M171.002,16.002h146v38h-146V16.002z M418.002,472.002h-348v-429h85v18.7    c0.1,4.5,3.7,8.2,8.2,8.3h161.6c4.5-0.1,8.1-3.8,8.2-8.3v-18.7h85V472.002z" fill="#37b6f0"/>
	</g>
</g>
<g>
	<g>
		<path d="M173.002,114.002h-54c-4.4,0-8,3.6-8,8v54c0,4.4,3.6,8,8,8h54c4.4,0,8-3.6,8-8v-54    C181.002,117.602,177.402,114.002,173.002,114.002z M165.002,168.002h-38v-38h38V168.002z" fill="#37b6f0"/>
	</g>
</g>
<g>
	<g>
		<path d="M365.102,114.002h-134.6c-4.4,0-8,3.6-8,8c0,4.4,3.6,8,8,8h134.6c4.4,0,8-3.6,8-8    C373.102,117.602,369.502,114.002,365.102,114.002z" fill="#37b6f0"/>
	</g>
</g>
<g>
	<g>
		<path d="M297.902,168.002h-67.3c-4.4,0-8,3.6-8,8c0,4.4,3.6,8,8,8h67.3c4.4,0,8-3.6,8-8    C305.902,171.602,302.302,168.002,297.902,168.002z" fill="#37b6f0"/>
	</g>
</g>
<g>
	<g>
		<path d="M281.002,378.002h-40.9l-12-47.9c-1.1-4.3-5.4-6.9-9.7-5.9c-2.5,0.6-4.5,2.4-5.5,4.8l-30.8,77l-7.9-35.5    c-0.8-3.7-4-6.4-7.8-6.5h-47.1c-4.4,0-8,3.6-8,8c0,4.4,3.6,8,8,8h40.7l12.1,54.6c0.8,3.4,3.7,6,7.2,6.3c0.2,0,0.4,0.1,0.6,0.1    c3.3,0,6.2-2,7.4-5l31.2-78l7.5,30c0.9,3.6,4.1,6.1,7.8,6.1h47.2c4.4,0,8-3.6,8-8    C289.002,381.702,285.502,378.002,281.002,378.002z" fill="#37b6f0"/>
	</g>
</g>
<g>
	<g>
		<path d="M365.202,223.002h-245.8c-4.4,0-8,3.6-8,8c0,4.4,3.6,8,8,8h245.7c4.4,0,8-3.6,8-8    C373.102,226.602,369.602,223.002,365.202,223.002z" fill="#37b6f0"/>
	</g>
</g>
<g>
	<g>
		<path d="M365.202,277.002h-245.8c-4.4,0-8,3.6-8,8c0,4.4,3.6,8,8,8h245.7c4.4,0,8-3.6,8-8    C373.102,280.602,369.602,277.002,365.202,277.002z" fill="#37b6f0"/>
	</g>
</g>
<g>
	<g>
		<path d="M365.202,425.002h-60.6c-4.4,0-8,3.6-8,8c0,4.4,3.6,8,8,8h60.6c4.4,0,8-3.6,8-8    C373.202,428.602,369.602,425.002,365.202,425.002z" fill="#37b6f0"/>
	</g>
</g>
<g>
</g>
<g>
</g>
<g>
</g>
<g>
</g>
<g>
</g>
<g>
</g>
<g>
</g>
<g>
</g>
<g>
</g>
<g>
</g>
<g>
</g>
<g>
</g>
<g>
</g>
<g>
</g>
<g>
</g>
</svg>
